v 90.5 99.0 126.0
v 91.0 99.0 125.5
v 91.0 98.5 126.0
v 91.0 99.0 126.5
v 91.0 99.5 126.0
v 90.5 102.0 124.0
v 91.0 102.0 123.5
v 91.0 101.5 124.0
v 91.0 101.5 125.0
v 90.5 102.0 125.0
v 91.0 101.5 126.0
v 90.5 102.0 126.0
v 91.0 102.0 126.5
v 90.5 103.0 124.0
v 91.0 103.0 123.5
v 90.5 103.0 125.0
v 90.5 103.0 126.0
v 91.0 103.0 126.5
v 90.5 104.0 124.0
v 91.0 104.0 123.5
v 90.5 104.0 125.0
v 90.5 104.0 126.0
v 91.0 104.0 126.5
v 90.5 105.0 124.0
v 91.0 105.0 123.5
v 90.5 105.0 125.0
v 91.0 105.0 125.5
v 91.0 104.5 126.0
v 91.0 105.5 124.0
v 91.0 105.5 125.0
v 91.5 98.0 126.0
v 92.0 98.0 125.5
v 92.0 97.5 126.0
v 92.0 97.5 127.0
v 91.5 98.0 127.0
v 92.0 98.0 127.5
v 91.5 99.0 125.0
v 92.0 99.0 124.5
v 92.0 98.5 125.0
v 92.0 98.5 127.0
v 92.0 99.0 126.5
v 91.5 100.0 124.0
v 92.0 100.0 123.5
v 92.0 99.5 124.0
v 91.5 100.0 125.0
v 91.5 100.0 126.0
v 92.0 100.0 126.5
v 91.5 101.0 122.0
v 92.0 101.0 121.5
v 92.0 100.5 122.0
v 92.0 100.5 123.0
v 91.5 101.0 123.0
v 91.5 101.0 124.0
v 92.0 101.0 124.5
v 92.0 100.5 125.0
v 92.0 100.5 126.0
v 92.0 101.5 122.0
v 91.5 102.0 123.0
v 92.0 102.0 122.5
v 92.0 101.5 125.0
v 92.0 101.5 126.0
v 92.0 102.0 126.5
v 91.5 103.0 123.0
v 92.0 103.0 122.5
v 92.0 103.0 126.5
v 91.5 104.0 123.0
v 92.0 104.0 122.5
v 92.0 104.0 126.5
v 92.0 104.5 123.0
v 92.0 105.0 123.5
v 92.0 104.5 126.0
v 92.0 105.0 125.5
v 92.0 105.5 124.0
v 92.0 105.5 125.0
v 91.5 126.0 133.0
v 92.0 126.0 132.5
v 92.0 125.5 133.0
v 92.0 126.0 133.5
v 92.0 126.5 133.0
v 92.5 98.0 125.0
v 93.0 98.0 124.5
v 93.0 97.5 125.0
v 93.0 97.5 126.0
v 92.5 98.0 127.0
v 93.0 98.0 126.5
v 93.0 99.0 124.5
v 92.5 99.0 127.0
v 93.0 98.5 127.0
v 93.0 99.0 127.5
v 92.5 100.0 124.0
v 93.0 100.0 124.5
v 92.5 100.0 127.0
v 93.0 100.0 127.5
v 93.0 101.0 121.5
v 93.0 100.5 122.0
v 93.0 100.5 123.0
v 93.0 100.5 124.0
v 92.5 101.0 125.0
v 92.5 101.0 126.0
v 93.0 101.0 126.5
v 93.0 100.5 127.0
v 93.0 101.5 122.0
v 93.0 102.0 122.5
v 93.0 102.0 126.5
v 93.0 102.5 123.0
v 92.5 103.0 123.0
v 93.0 103.0 123.5
v 93.0 103.0 126.5
v 92.5 104.0 123.0
v 93.0 104.0 123.5
v 93.0 104.0 126.5
v 93.0 105.0 123.5
v 92.5 105.0 126.0
v 93.0 105.0 126.5
v 93.0 105.5 124.0
v 93.0 105.5 125.0
v 93.0 105.5 126.0
v 92.5 124.0 135.0
v 93.0 124.0 134.5
v 93.0 123.5 135.0
v 93.0 124.0 135.5
v 92.5 125.0 134.0
v 93.0 125.0 133.5
v 93.0 124.5 134.0
v 92.5 125.0 135.0
v 93.0 125.0 135.5
v 92.5 126.0 133.0
v 93.0 125.5 134.0
v 93.0 125.5 135.0
v 94.0 98.0 124.5
v 94.0 97.5 125.0
v 94.0 97.5 126.0
v 94.0 97.5 127.0
v 93.5 98.0 127.0
v 94.0 98.0 127.5
v 93.5 99.0 123.0
v 94.0 99.0 122.5
v 94.0 98.5 123.0
v 94.0 98.5 124.0
v 93.5 99.0 124.0
v 94.0 99.0 127.5
v 93.5 100.0 122.0
v 94.0 100.0 121.5
v 94.0 99.5 122.0
v 93.5 100.0 123.0
v 93.5 100.0 124.0
v 94.0 100.0 127.5
v 94.0 101.0 121.5
v 93.5 101.0 127.0
v 94.0 101.0 127.5
v 94.0 101.5 122.0
v 94.0 102.0 122.5
v 94.0 101.5 127.0
v 94.0 102.0 126.5
v 94.0 102.5 123.0
v 94.0 103.0 123.5
v 94.0 102.5 127.0
v 93.5 103.0 127.0
v 94.0 103.0 127.5
v 94.0 104.0 123.5
v 93.5 104.0 127.0
v 94.0 104.0 127.5
v 94.0 104.5 124.0
v 93.5 105.0 124.0
v 94.0 105.0 124.5
v 93.5 105.0 127.0
v 94.0 105.0 127.5
v 94.0 105.5 125.0
v 94.0 105.5 126.0
v 94.0 105.5 127.0
v 93.5 120.0 136.0
v 94.0 120.0 135.5
v 94.0 119.5 136.0
v 94.0 120.0 136.5
v 94.0 120.5 136.0
v 94.0 124.0 134.5
v 94.0 123.5 135.0
v 94.0 124.0 135.5
v 94.0 125.0 133.5
v 94.0 124.5 134.0
v 94.0 125.0 135.5
v 94.0 125.5 134.0
v 94.0 125.5 135.0
v 95.0 98.0 124.5
v 95.0 97.5 125.0
v 95.0 97.5 126.0
v 95.0 97.5 127.0
v 95.0 98.0 127.5
v 94.5 99.0 122.0
v 95.0 99.0 121.5
v 95.0 98.5 122.0
v 95.0 98.5 123.0
v 95.0 98.5 124.0
v 95.0 99.0 127.5
v 95.0 100.0 121.5
v 95.0 99.5 128.0
v 94.5 100.0 128.0
v 95.0 100.0 128.5
v 95.0 101.0 121.5
v 95.0 100.5 128.0
v 95.0 101.0 127.5
v 95.0 101.5 122.0
v 94.5 102.0 123.0
v 95.0 101.5 123.0
v 95.0 102.0 123.5
v 95.0 101.5 127.0
v 95.0 102.0 126.5
v 95.0 103.0 123.5
v 95.0 102.5 127.0
v 95.0 103.0 127.5
v 95.0 103.5 124.0
v 94.5 104.0 124.0
v 95.0 104.0 124.5
v 95.0 104.0 127.5
v 95.0 105.0 124.5
v 95.0 104.5 128.0
v 94.5 105.0 128.0
v 95.0 105.0 128.5
v 95.0 105.5 125.0
v 94.5 106.0 126.0
v 95.0 106.0 125.5
v 95.0 106.0 126.5
v 95.0 105.5 127.0
v 95.0 105.5 128.0
v 95.0 106.5 126.0
v 94.5 120.0 136.0
v 94.5 121.0 125.0
v 95.0 121.0 124.5
v 95.0 120.5 125.0
v 95.0 121.0 125.5
v 95.0 121.5 125.0
v 94.5 123.0 128.0
v 95.0 123.0 127.5
v 95.0 122.5 128.0
v 95.0 123.0 128.5
v 95.0 123.5 128.0
v 94.5 124.0 135.0
v 95.0 125.0 133.5
v 95.0 124.5 134.0
v 94.5 125.0 135.0
v 95.0 125.0 134.5
v 95.0 125.5 134.0
v 96.0 98.0 124.5
v 96.0 97.5 125.0
v 96.0 97.5 126.0
v 96.0 97.5 127.0
v 96.0 98.0 127.5
v 95.5 99.0 122.0
v 96.0 99.0 122.5
v 96.0 98.5 123.0
v 96.0 98.5 124.0
v 96.0 99.0 127.5
v 95.5 100.0 122.0
v 96.0 99.5 123.0
v 95.5 100.0 123.0
v 96.0 100.0 123.5
v 96.0 99.5 128.0
v 96.0 100.0 128.5
v 95.5 101.0 122.0
v 96.0 101.0 122.5
v 96.0 100.5 123.0
v 95.5 101.0 126.0
v 96.0 100.5 126.0
v 96.0 101.0 125.5
v 95.5 101.0 127.0
v 96.0 100.5 127.0
v 96.0 100.5 128.0
v 96.0 101.5 123.0
v 95.5 102.0 124.0
v 96.0 101.5 124.0
v 96.0 102.0 124.5
v 95.5 102.0 126.0
v 96.0 102.0 125.5
v 95.5 103.0 124.0
v 96.0 103.0 124.5
v 96.0 102.5 126.0
v 96.0 102.5 127.0
v 96.0 103.0 127.5
v 96.0 104.0 124.5
v 95.5 104.0 127.0
v 96.0 103.5 127.0
v 96.0 104.0 126.5
v 96.0 104.5 125.0
v 95.5 105.0 125.0
v 96.0 105.0 125.5
v 95.5 105.0 127.0
v 96.0 105.0 126.5
v 96.0 104.5 128.0
v 96.0 105.0 127.5
v 96.0 105.0 128.5
v 95.5 106.0 126.0
v 96.0 105.5 126.0
v 96.0 105.5 128.0
v 95.5 120.0 124.0
v 96.0 120.0 123.5
v 96.0 119.5 124.0
v 96.0 119.5 125.0
v 95.5 120.0 125.0
v 96.0 120.0 125.5
v 95.5 120.0 136.0
v 96.0 120.0 135.5
v 96.0 119.5 136.0
v 96.0 120.0 136.5
v 95.5 121.0 124.0
v 96.0 121.0 123.5
v 96.0 121.0 125.5
v 95.5 121.0 136.0
v 96.0 121.0 135.5
v 96.0 121.0 136.5
v 95.5 122.0 124.0
v 96.0 122.0 123.5
v 95.5 122.0 125.0
v 96.0 121.5 126.0
v 95.5 122.0 126.0
v 96.0 122.0 126.5
v 95.5 122.0 136.0
v 96.0 122.0 135.5
v 96.0 122.0 136.5
v 96.0 122.5 124.0
v 96.0 122.5 125.0
v 96.0 122.5 126.0
v 96.0 123.0 127.5
v 96.0 122.5 128.0
v 96.0 123.0 128.5
v 95.5 123.0 136.0
v 96.0 123.0 135.5
v 96.0 123.0 136.5
v 96.0 123.5 128.0
v 96.0 123.5 136.0
v 96.0 125.0 133.5
v 96.0 124.5 134.0
v 96.0 124.5 135.0
v 95.5 125.0 135.0
v 96.0 125.0 135.5
v 96.0 125.5 134.0
v 96.0 125.5 135.0
v 96.5 98.0 125.0
v 97.0 98.0 125.5
v 97.0 97.5 126.0
v 96.5 98.0 127.0
v 97.0 98.0 126.5
v 96.5 99.0 123.0
v 96.5 99.0 124.0
v 96.5 99.0 125.0
v 97.0 99.0 125.5
v 96.5 99.0 127.0
v 97.0 99.0 126.5
v 96.5 100.0 124.0
v 96.5 100.0 125.0
v 97.0 99.5 126.0
v 96.5 100.0 126.0
v 96.5 100.0 127.0
v 96.5 100.0 128.0
v 96.5 101.0 123.0
v 96.5 101.0 124.0
v 96.5 101.0 125.0
v 96.5 102.0 125.0
v 96.5 103.0 125.0
v 97.0 102.5 126.0
v 97.0 103.0 125.5
v 96.5 103.0 127.0
v 97.0 103.0 126.5
v 96.5 104.0 125.0
v 97.0 104.0 125.5
v 97.0 104.0 126.5
v 97.0 105.0 125.5
v 97.0 104.5 127.0
v 96.5 105.0 127.0
v 97.0 104.5 128.0
v 97.0 105.0 128.5
v 96.5 106.0 126.0
v 97.0 106.0 125.5
v 96.5 106.0 127.0
v 97.0 105.5 128.0
v 97.0 106.0 127.5
v 97.0 106.5 126.0
v 97.0 106.5 127.0
v 96.5 113.0 130.0
v 97.0 113.0 129.5
v 97.0 112.5 130.0
v 97.0 113.0 130.5
v 96.5 114.0 130.0
v 97.0 114.0 129.5
v 97.0 113.5 131.0
v 96.5 114.0 131.0
v 97.0 114.0 131.5
v 97.0 114.5 130.0
v 96.5 115.0 131.0
v 97.0 115.0 130.5
v 97.0 114.5 132.0
v 96.5 115.0 132.0
v 97.0 115.0 132.5
v 96.5 116.0 131.0
v 97.0 116.0 130.5
v 96.5 116.0 132.0
v 97.0 116.0 132.5
v 97.0 116.5 131.0
v 97.0 116.5 132.0
v 97.0 120.0 123.5
v 97.0 119.5 124.0
v 97.0 119.5 125.0
v 97.0 120.0 125.5
v 97.0 120.0 135.5
v 97.0 119.5 136.0
v 97.0 119.5 137.0
v 96.5 120.0 137.0
v 97.0 120.0 137.5
v 97.0 121.0 123.5
v 97.0 121.0 125.5
v 96.5 121.0 135.0
v 97.0 121.0 134.5
v 97.0 120.5 135.0
v 96.5 121.0 137.0
v 97.0 121.0 137.5
v 97.0 122.0 123.5
v 97.0 121.5 126.0
v 97.0 122.0 126.5
v 97.0 121.5 135.0
v 97.0 122.0 135.5
v 96.5 122.0 137.0
v 97.0 122.0 137.5
v 96.5 123.0 124.0
v 97.0 123.0 123.5
v 96.5 123.0 125.0
v 97.0 123.0 125.5
v 97.0 122.5 126.0
v 97.0 123.0 127.5
v 97.0 122.5 128.0
v 97.0 123.0 128.5
v 96.5 123.0 134.0
v 97.0 123.0 133.5
v 97.0 122.5 134.0
v 97.0 123.0 134.5
v 97.0 123.0 135.5
v 96.5 123.0 137.0
v 97.0 123.0 137.5
v 97.0 123.5 124.0
v 97.0 123.5 125.0
v 97.0 123.5 128.0
v 96.5 124.0 133.0
v 97.0 124.0 132.5
v 97.0 123.5 133.0
v 96.5 124.0 134.0
v 97.0 123.5 135.0
v 96.5 124.0 135.0
v 97.0 123.5 136.0
v 97.0 124.0 135.5
v 97.0 123.5 137.0
v 96.5 125.0 130.0
v 97.0 125.0 129.5
v 97.0 124.5 130.0
v 97.0 125.0 130.5
v 96.5 125.0 133.0
v 97.0 125.0 132.5
v 97.0 125.0 135.5
v 97.0 125.5 130.0
v 97.0 125.5 133.0
v 97.0 125.5 134.0
v 97.0 125.5 135.0
v 96.5 127.0 130.0
v 97.0 127.0 129.5
v 97.0 126.5 130.0
v 97.0 127.0 130.5
v 97.0 127.5 130.0
v 97.5 98.0 126.0
v 97.5 99.0 126.0
v 97.5 103.0 126.0
v 98.0 104.0 125.5
v 98.0 103.5 126.0
v 98.0 104.0 126.5
v 98.0 104.5 126.0
v 97.5 105.0 126.0
v 97.5 105.0 127.0
v 97.5 105.0 128.0
v 97.5 106.0 126.0
v 97.5 106.0 127.0
v 97.5 111.0 128.0
v 98.0 111.0 127.5
v 98.0 110.5 128.0
v 98.0 110.5 129.0
v 97.5 111.0 129.0
v 98.0 111.0 129.5
v 98.0 111.5 128.0
v 98.0 111.5 129.0
v 98.0 113.0 129.5
v 98.0 112.5 130.0
v 98.0 112.5 131.0
v 97.5 113.0 131.0
v 98.0 113.0 131.5
v 97.5 114.0 128.0
v 98.0 114.0 127.5
v 98.0 113.5 128.0
v 98.0 114.0 128.5
v 98.0 114.0 129.5
v 98.0 114.0 131.5
v 98.0 114.5 128.0
v 97.5 115.0 130.0
v 98.0 115.0 129.5
v 98.0 114.5 132.0
v 98.0 115.0 132.5
v 97.5 116.0 130.0
v 98.0 116.0 129.5
v 98.0 116.0 132.5
v 98.0 116.5 130.0
v 98.0 116.5 131.0
v 98.0 116.5 132.0
v 98.0 116.5 133.0
v 97.5 117.0 133.0
v 98.0 117.0 132.5
v 98.0 117.0 133.5
v 97.5 118.0 131.0
v 98.0 118.0 130.5
v 98.0 117.5 131.0
v 98.0 118.0 131.5
v 98.0 117.5 133.0
v 97.5 118.0 137.0
v 98.0 118.0 136.5
v 98.0 117.5 137.0
v 98.0 118.0 137.5
v 98.0 118.5 131.0
v 97.5 119.0 137.0
v 98.0 119.0 136.5
v 98.0 119.0 137.5
v 98.0 120.0 123.5
v 98.0 119.5 124.0
v 97.5 120.0 125.0
v 98.0 120.0 124.5
v 98.0 120.0 135.5
v 98.0 119.5 136.0
v 98.0 120.0 137.5
v 98.0 120.5 124.0
v 97.5 121.0 124.0
v 98.0 120.5 125.0
v 98.0 121.0 124.5
v 98.0 121.0 125.5
v 98.0 121.0 134.5
v 98.0 120.5 135.0
v 98.0 121.0 137.5
v 97.5 122.0 124.0
v 98.0 121.5 125.0
v 97.5 122.0 125.0
v 97.5 121.5 125.5
v 98.0 121.5 126.0
v 98.0 122.0 125.5
v 98.0 121.5 127.0
v 97.5 122.0 127.0
v 98.0 121.5 128.0
v 97.5 122.0 128.0
v 98.0 121.5 129.0
v 97.5 122.0 129.0
v 98.0 122.0 129.5
v 97.5 122.0 135.0
v 98.0 122.0 134.5
v 98.0 122.0 137.5
v 97.5 123.0 124.0
v 98.0 123.0 124.5
v 98.0 122.5 125.0
v 97.5 123.0 126.0
v 97.5 123.0 127.0
v 98.0 122.5 129.0
v 98.0 123.0 128.5
v 98.0 123.0 133.5
v 98.0 122.5 134.0
v 97.5 123.0 135.0
v 98.0 123.0 137.5
v 98.0 123.5 125.0
v 98.0 123.5 126.0
v 98.0 123.5 127.0
v 98.0 123.5 128.0
v 97.5 124.0 132.0
v 98.0 124.0 131.5
v 98.0 123.5 132.0
v 98.0 123.5 133.0
v 97.5 124.0 136.0
v 98.0 124.0 136.5
v 98.0 123.5 137.0
v 98.0 125.0 129.5
v 98.0 124.5 130.0
v 98.0 125.0 130.5
v 98.0 124.5 132.0
v 98.0 125.0 132.5
v 98.0 124.5 136.0
v 98.0 125.0 135.5
v 98.0 125.5 130.0
v 98.0 125.5 133.0
v 98.0 125.5 134.0
v 98.0 125.5 135.0
v 97.5 127.0 130.0
v 98.5 104.0 126.0
v 99.0 111.0 127.5
v 99.0 110.5 128.0
v 99.0 110.5 129.0
v 99.0 110.5 130.0
v 98.5 111.0 130.0
v 99.0 111.0 130.5
v 98.5 112.0 127.0
v 99.0 112.0 126.5
v 99.0 111.5 127.0
v 98.5 112.0 128.0
v 98.5 112.0 129.0
v 98.5 112.0 130.0
v 99.0 112.0 130.5
v 98.5 113.0 127.0
v 99.0 113.0 126.5
v 98.5 113.0 128.0
v 98.5 113.0 129.0
v 99.0 112.5 131.0
v 99.0 112.5 132.0
v 98.5 113.0 132.0
v 99.0 113.0 132.5
v 99.0 113.5 127.0
v 99.0 114.0 127.5
v 98.5 114.0 129.0
v 98.5 114.0 132.0
v 99.0 114.0 132.5
v 99.0 114.5 128.0
v 98.5 115.0 129.0
v 99.0 115.0 128.5
v 99.0 114.5 133.0
v 98.5 115.0 133.0
v 99.0 115.0 133.5
v 98.5 116.0 129.0
v 99.0 116.0 128.5
v 99.0 115.5 133.0
v 99.0 116.0 132.5
v 98.5 117.0 129.0
v 99.0 117.0 128.5
v 98.5 117.0 130.0
v 98.5 117.0 131.0
v 98.5 117.0 132.0
v 98.5 116.5 132.5
v 99.0 116.5 133.0
v 99.0 117.0 133.5
v 99.0 117.5 129.0
v 98.5 118.0 130.0
v 99.0 118.0 129.5
v 99.0 117.5 132.0
v 99.0 118.0 131.5
v 99.0 117.5 133.0
v 98.5 118.0 136.0
v 99.0 118.0 135.5
v 99.0 117.5 136.0
v 99.0 117.5 137.0
v 99.0 118.0 137.5
v 99.0 118.5 130.0
v 99.0 118.5 131.0
v 98.5 119.0 136.0
v 99.0 119.0 135.5
v 99.0 119.0 137.5
v 98.5 120.0 124.0
v 98.5 120.0 135.0
v 99.0 120.0 134.5
v 99.0 119.5 135.0
v 99.0 120.0 137.5
v 98.5 121.0 125.0
v 98.5 121.0 134.0
v 99.0 121.0 133.5
v 99.0 120.5 134.0
v 99.0 121.0 137.5
v 99.0 122.0 125.5
v 99.0 121.5 126.0
v 99.0 121.5 127.0
v 99.0 121.5 128.0
v 99.0 121.5 129.0
v 99.0 122.0 129.5
v 98.5 122.0 134.0
v 99.0 122.0 133.5
v 99.0 122.0 137.5
v 99.0 123.0 124.5
v 99.0 122.5 125.0
v 98.5 123.0 128.0
v 99.0 122.5 128.0
v 99.0 123.0 127.5
v 99.0 122.5 129.0
v 99.0 123.0 133.5
v 99.0 123.0 137.5
v 99.0 123.5 125.0
v 99.0 123.5 126.0
v 99.0 123.5 127.0
v 98.5 124.0 132.0
v 99.0 124.0 132.5
v 99.0 123.5 133.0
v 99.0 123.5 137.0
v 99.0 124.0 136.5
v 99.0 125.0 129.5
v 99.0 124.5 130.0
v 99.0 124.5 131.0
v 98.5 125.0 131.0
v 99.0 124.5 132.0
v 98.5 125.0 132.0
v 98.5 125.0 133.0
v 99.0 124.5 133.0
v 99.0 125.0 132.5
v 98.5 125.0 134.0
v 99.0 124.5 134.0
v 99.0 125.0 134.5
v 99.0 124.5 136.0
v 99.0 125.0 135.5
v 99.0 125.5 130.0
v 99.0 125.5 131.0
v 99.0 125.5 132.0
v 99.0 125.5 135.0
v 99.5 110.0 128.0
v 100.0 110.0 127.5
v 100.0 109.5 128.0
v 100.0 109.5 129.0
v 99.5 110.0 129.0
v 100.0 109.5 130.0
v 99.5 110.0 130.0
v 100.0 110.0 130.5
v 100.0 111.0 127.5
v 100.0 111.0 130.5
v 99.5 112.0 126.0
v 100.0 112.0 125.5
v 100.0 111.5 126.0
v 100.0 111.5 127.0
v 100.0 111.5 131.0
v 99.5 112.0 131.0
v 100.0 112.0 131.5
v 99.5 112.0 133.0
v 100.0 112.0 132.5
v 100.0 111.5 133.0
v 100.0 112.0 133.5
v 99.5 113.0 126.0
v 100.0 113.0 125.5
v 100.0 112.5 132.0
v 99.5 113.0 133.0
v 100.0 113.0 133.5
v 100.0 113.5 126.0
v 100.0 113.5 127.0
v 100.0 114.0 127.5
v 99.5 114.0 133.0
v 100.0 114.0 133.5
v 100.0 114.5 128.0
v 100.0 115.0 128.5
v 100.0 115.0 132.5
v 99.5 115.0 133.0
v 100.0 114.5 133.0
v 100.0 116.0 128.5
v 100.0 116.0 132.5
v 100.0 117.0 128.5
v 99.5 117.0 132.0
v 100.0 116.5 132.0
v 100.0 117.0 131.5
v 99.5 117.0 133.0
v 100.0 117.5 129.0
v 100.0 118.0 129.5
v 100.0 118.0 131.5
v 99.5 118.0 136.0
v 99.5 118.0 137.0
v 100.0 118.5 130.0
v 100.0 118.5 131.0
v 99.5 119.0 136.0
v 99.5 119.0 137.0
v 100.0 120.0 134.5
v 100.0 119.5 135.0
v 100.0 119.5 136.0
v 100.0 120.0 136.5
v 99.5 120.0 137.0
v 100.0 121.0 133.5
v 100.0 120.5 134.0
v 100.0 120.5 137.0
v 100.0 121.0 137.5
v 100.0 122.0 125.5
v 100.0 121.5 126.0
v 100.0 121.5 127.0
v 100.0 121.5 128.0
v 99.5 122.0 129.0
v 100.0 122.0 128.5
v 100.0 122.0 133.5
v 100.0 122.0 137.5
v 100.0 123.0 124.5
v 100.0 122.5 125.0
v 99.5 123.0 127.0
v 100.0 122.5 127.0
v 100.0 123.0 126.5
v 100.0 122.5 128.0
v 100.0 123.0 133.5
v 99.5 123.0 137.0
v 100.0 122.5 137.0
v 100.0 123.0 136.5
v 100.0 123.5 125.0
v 100.0 123.5 126.0
v 100.0 124.0 132.5
v 100.0 123.5 133.0
v 99.5 124.0 136.0
v 100.0 123.5 136.0
v 100.0 124.0 135.5
v 99.5 125.0 130.0
v 99.5 125.0 131.0
v 99.5 125.0 132.0
v 100.0 124.5 133.0
v 100.0 124.5 134.0
v 99.5 125.0 135.0
v 100.0 124.5 135.0
v 101.0 110.0 127.5
v 101.0 109.5 128.0
v 101.0 109.5 129.0
v 101.0 109.5 130.0
v 101.0 109.5 131.0
v 100.5 110.0 131.0
v 101.0 109.5 132.0
v 100.5 110.0 132.0
v 101.0 109.5 133.0
v 100.5 110.0 133.0
v 101.0 110.0 133.5
v 101.0 111.0 127.5
v 100.5 111.0 131.0
v 100.5 111.0 132.0
v 100.5 111.0 133.0
v 101.0 110.5 134.0
v 100.5 111.0 134.0
v 101.0 111.0 134.5
v 100.5 112.0 126.0
v 101.0 112.0 126.5
v 101.0 111.5 127.0
v 100.5 112.0 132.0
v 100.5 112.0 134.0
v 101.0 112.0 134.5
v 101.0 113.0 125.5
v 101.0 112.5 126.0
v 100.5 113.0 134.0
v 101.0 113.0 134.5
v 101.0 113.5 126.0
v 101.0 113.5 127.0
v 101.0 114.0 127.5
v 101.0 113.5 134.0
v 101.0 114.0 133.5
v 100.5 115.0 128.0
v 101.0 115.0 127.5
v 100.5 115.0 133.0
v 101.0 115.0 133.5
v 101.0 115.5 128.0
v 101.0 116.0 128.5
v 100.5 116.0 133.0
v 101.0 116.0 133.5
v 101.0 117.0 128.5
v 101.0 116.5 132.0
v 101.0 117.0 131.5
v 101.0 116.5 133.0
v 101.0 117.5 129.0
v 101.0 118.0 129.5
v 101.0 118.0 131.5
v 101.0 118.5 130.0
v 101.0 118.5 131.0
v 100.5 120.0 135.0
v 100.5 120.0 136.0
v 100.5 121.0 134.0
v 100.5 121.0 135.0
v 100.5 121.0 136.0
v 100.5 121.0 137.0
v 101.0 122.0 125.5
v 101.0 121.5 126.0
v 101.0 121.5 127.0
v 101.0 121.5 128.0
v 101.0 122.0 128.5
v 100.5 122.0 134.0
v 100.5 122.0 135.0
v 100.5 122.0 136.0
v 100.5 122.0 137.0
v 101.0 123.0 124.5
v 101.0 122.5 125.0
v 101.0 122.5 127.0
v 101.0 123.0 126.5
v 101.0 122.5 128.0
v 100.5 123.0 134.0
v 100.5 123.0 135.0
v 101.0 123.0 135.5
v 101.0 122.5 136.0
v 101.0 123.0 136.5
v 101.0 123.5 125.0
v 101.0 123.5 126.0
v 100.5 124.0 133.0
v 100.5 124.0 134.0
v 100.5 124.0 135.0
v 101.0 123.5 136.0
v 101.5 110.0 127.0
v 102.0 110.0 126.5
v 102.0 109.5 127.0
v 102.0 109.5 128.0
v 102.0 109.5 129.0
v 102.0 109.5 130.0
v 102.0 109.5 131.0
v 102.0 109.5 132.0
v 102.0 109.5 133.0
v 102.0 109.5 134.0
v 101.5 110.0 134.0
v 102.0 109.5 135.0
v 101.5 110.0 135.0
v 102.0 110.0 135.5
v 101.5 111.0 127.0
v 102.0 111.0 126.5
v 102.0 110.5 135.0
v 102.0 111.0 134.5
v 102.0 112.0 126.5
v 102.0 112.0 134.5
v 101.5 113.0 126.0
v 102.0 113.0 126.5
v 102.0 113.0 134.5
v 102.0 113.5 127.0
v 102.0 114.0 127.5
v 102.0 113.5 134.0
v 102.0 114.0 133.5
v 102.0 114.5 128.0
v 101.5 115.0 128.0
v 102.0 115.0 128.5
v 101.5 115.0 133.0
v 102.0 114.5 133.0
v 102.0 115.0 132.5
v 102.0 116.0 128.5
v 102.0 115.5 133.0
v 102.0 116.0 133.5
v 102.0 117.0 128.5
v 102.0 116.5 132.0
v 102.0 117.0 131.5
v 102.0 116.5 133.0
v 102.0 117.5 129.0
v 102.0 118.0 129.5
v 102.0 118.0 131.5
v 102.0 118.5 130.0
v 102.0 118.5 131.0
v 101.5 122.0 126.0
v 102.0 122.0 126.5
v 102.0 121.5 127.0
v 102.0 121.5 128.0
v 102.0 122.0 128.5
v 101.5 123.0 125.0
v 102.0 123.0 125.5
v 102.0 122.5 126.0
v 101.5 122.5 126.5
v 102.0 123.0 126.5
v 102.0 122.5 127.0
v 102.0 122.5 128.0
v 101.5 123.0 136.0
v 102.0 123.5 126.0
v 102.5 109.0 126.0
v 103.0 109.0 125.5
v 103.0 108.5 126.0
v 103.0 108.5 127.0
v 102.5 109.0 127.0
v 103.0 108.5 128.0
v 102.5 109.0 128.0
v 103.0 108.5 129.0
v 102.5 109.0 129.0
v 103.0 108.5 130.0
v 102.5 109.0 130.0
v 103.0 108.5 131.0
v 102.5 109.0 131.0
v 103.0 108.5 132.0
v 102.5 109.0 132.0
v 103.0 108.5 133.0
v 102.5 109.0 133.0
v 103.0 108.5 134.0
v 102.5 109.0 134.0
v 103.0 109.0 134.5
v 103.0 109.5 126.0
v 103.0 110.0 126.5
v 103.0 109.5 135.0
v 103.0 110.0 135.5
v 102.5 111.0 126.0
v 103.0 111.0 125.5
v 103.0 110.5 126.0
v 103.0 110.5 135.0
v 103.0 111.0 134.5
v 103.0 111.5 126.0
v 103.0 112.0 126.5
v 103.0 112.0 134.5
v 102.5 113.0 126.0
v 103.0 113.0 125.5
v 103.0 112.5 126.0
v 103.0 113.0 134.5
v 103.0 113.5 126.0
v 103.0 113.5 127.0
v 103.0 114.0 127.5
v 103.0 113.5 134.0
v 103.0 114.0 133.5
v 103.0 114.5 128.0
v 103.0 115.0 128.5
v 102.5 115.0 133.0
v 103.0 115.0 133.5
v 103.0 116.0 128.5
v 103.0 116.0 133.5
v 103.0 117.0 128.5
v 103.0 116.5 132.0
v 103.0 117.0 131.5
v 103.0 116.5 133.0
v 103.0 117.5 129.0
v 102.5 118.0 130.0
v 103.0 117.5 130.0
v 102.5 118.0 131.0
v 103.0 117.5 131.0
v 103.0 122.0 126.5
v 103.0 121.5 127.0
v 102.5 122.0 128.0
v 103.0 122.0 127.5
v 102.5 123.0 126.0
v 103.0 122.5 127.0
v 103.5 106.0 127.0
v 104.0 106.0 126.5
v 104.0 105.5 127.0
v 104.0 105.5 128.0
v 103.5 106.0 128.0
v 104.0 106.0 128.5
v 104.0 106.5 127.0
v 103.5 107.0 128.0
v 104.0 107.0 127.5
v 104.0 106.5 129.0
v 103.5 107.0 129.0
v 104.0 106.5 130.0
v 103.5 107.0 130.0
v 104.0 106.5 131.0
v 103.5 107.0 131.0
v 104.0 106.5 132.0
v 103.5 107.0 132.0
v 104.0 107.0 132.5
v 103.5 108.0 128.0
v 104.0 108.0 127.5
v 103.5 108.0 129.0
v 103.5 108.0 130.0
v 103.5 108.0 131.0
v 103.5 108.0 132.0
v 104.0 107.5 133.0
v 103.5 108.0 133.0
v 104.0 107.5 134.0
v 103.5 108.0 134.0
v 104.0 107.5 135.0
v 103.5 108.0 135.0
v 104.0 108.0 135.5
v 104.0 109.0 125.5
v 104.0 108.5 126.0
v 104.0 108.5 127.0
v 103.5 109.0 135.0
v 104.0 108.5 136.0
v 103.5 109.0 136.0
v 104.0 109.0 136.5
v 103.5 110.0 126.0
v 104.0 110.0 125.5
v 104.0 109.5 136.0
v 104.0 110.0 135.5
v 103.5 111.0 126.0
v 104.0 110.5 126.0
v 104.0 111.0 126.5
v 104.0 110.5 135.0
v 104.0 111.0 134.5
v 104.0 112.0 126.5
v 104.0 112.0 134.5
v 103.5 113.0 126.0
v 104.0 113.0 126.5
v 104.0 113.0 134.5
v 104.0 113.5 127.0
v 104.0 114.0 127.5
v 103.5 114.0 134.0
v 104.0 114.0 134.5
v 104.0 114.5 128.0
v 104.0 115.0 128.5
v 103.5 115.0 133.0
v 104.0 114.5 133.0
v 104.0 115.0 132.5
v 104.0 114.5 134.0
v 104.0 115.5 129.0
v 103.5 116.0 129.0
v 104.0 116.0 129.5
v 103.5 116.0 133.0
v 104.0 116.0 132.5
v 103.5 117.0 129.0
v 104.0 117.0 129.5
v 103.5 117.0 131.0
v 104.0 116.5 131.0
v 104.0 117.0 130.5
v 104.0 116.5 132.0
v 104.0 117.5 130.0
v 103.5 122.0 127.0
v 104.5 105.0 128.0
v 105.0 105.0 127.5
v 105.0 104.5 128.0
v 105.0 104.5 129.0
v 104.5 105.0 129.0
v 105.0 104.5 130.0
v 104.5 105.0 130.0
v 105.0 105.0 130.5
v 104.5 106.0 126.0
v 105.0 106.0 125.5
v 105.0 105.5 126.0
v 105.0 105.5 127.0
v 104.5 106.0 129.0
v 104.5 106.0 130.0
v 105.0 105.5 131.0
v 104.5 106.0 131.0
v 105.0 105.5 132.0
v 104.5 106.0 132.0
v 105.0 105.5 133.0
v 104.5 106.0 133.0
v 105.0 105.5 134.0
v 104.5 106.0 134.0
v 105.0 106.0 134.5
v 104.5 107.0 126.0
v 105.0 107.0 125.5
v 104.5 107.0 127.0
v 104.5 107.0 133.0
v 104.5 107.0 134.0
v 105.0 107.0 134.5
v 104.5 108.0 126.0
v 105.0 108.0 125.5
v 104.5 108.0 127.0
v 105.0 107.5 135.0
v 105.0 108.0 135.5
v 105.0 109.0 125.5
v 105.0 108.5 136.0
v 105.0 109.0 136.5
v 105.0 109.5 126.0
v 104.5 110.0 126.0
v 105.0 110.0 126.5
v 105.0 109.5 136.0
v 105.0 110.0 135.5
v 105.0 111.0 125.5
v 104.5 111.0 126.0
v 105.0 110.5 126.0
v 105.0 110.5 135.0
v 105.0 111.0 134.5
v 105.0 111.5 126.0
v 105.0 112.0 126.5
v 105.0 112.0 134.5
v 105.0 113.0 126.5
v 104.5 113.0 129.0
v 105.0 112.5 129.0
v 105.0 113.0 128.5
v 105.0 113.0 129.5
v 105.0 113.0 134.5
v 105.0 113.5 127.0
v 104.5 114.0 128.0
v 105.0 113.5 128.0
v 104.5 114.0 129.0
v 105.0 114.0 129.5
v 104.5 114.0 133.0
v 105.0 113.5 133.0
v 105.0 114.0 132.5
v 104.5 114.0 134.0
v 105.0 113.5 134.0
v 105.0 114.5 129.0
v 105.0 115.0 128.5
v 105.0 115.0 132.5
v 105.0 115.5 129.0
v 105.0 116.0 129.5
v 105.0 116.0 132.5
v 105.0 116.5 130.0
v 104.5 117.0 130.0
v 105.0 116.5 131.0
v 105.0 116.5 132.0
v 105.5 103.0 132.0
v 106.0 103.0 131.5
v 106.0 102.5 132.0
v 106.0 102.5 133.0
v 105.5 103.0 133.0
v 106.0 103.0 133.5
v 105.5 104.0 132.0
v 106.0 104.0 131.5
v 105.5 104.0 133.0
v 106.0 104.0 133.5
v 106.0 105.0 127.5
v 106.0 104.5 128.0
v 106.0 104.5 129.0
v 106.0 104.5 130.0
v 106.0 104.5 131.0
v 105.5 105.0 131.0
v 105.5 105.0 132.0
v 105.5 105.0 133.0
v 106.0 105.0 133.5
v 105.5 106.0 126.0
v 106.0 106.0 126.5
v 106.0 105.5 127.0
v 106.0 105.5 134.0
v 106.0 105.5 135.0
v 105.5 106.0 135.0
v 106.0 106.0 135.5
v 105.5 107.0 126.0
v 106.0 106.5 127.0
v 105.5 107.0 127.0
v 106.0 107.0 127.5
v 105.5 107.0 135.0
v 106.0 106.5 136.0
v 105.5 107.0 136.0
v 106.0 107.0 136.5
v 105.5 108.0 126.0
v 106.0 108.0 126.5
v 106.0 107.5 127.0
v 105.5 108.0 136.0
v 106.0 108.0 136.5
v 105.5 109.0 126.0
v 106.0 108.5 127.0
v 105.5 109.0 127.0
v 106.0 109.0 127.5
v 106.0 109.0 136.5
v 106.0 109.5 127.0
v 106.0 110.0 126.5
v 105.5 110.0 136.0
v 106.0 110.0 136.5
v 105.5 111.0 126.0
v 106.0 111.0 126.5
v 106.0 110.5 135.0
v 106.0 111.0 134.5
v 106.0 110.5 136.0
v 105.5 112.0 127.0
v 106.0 111.5 127.0
v 106.0 112.0 127.5
v 105.5 112.0 134.0
v 106.0 111.5 134.0
v 106.0 112.0 133.5
v 105.5 113.0 127.0
v 106.0 112.5 128.0
v 105.5 113.0 128.0
v 106.0 112.5 129.0
v 106.0 113.0 129.5
v 105.5 113.0 133.0
v 106.0 112.5 133.0
v 106.0 113.0 132.5
v 105.5 113.0 134.0
v 106.0 113.5 130.0
v 105.5 114.0 130.0
v 105.5 114.0 131.0
v 106.0 113.5 131.0
v 105.5 114.0 132.0
v 106.0 113.5 132.0
v 105.5 115.0 129.0
v 105.5 115.0 130.0
v 105.5 115.0 131.0
v 105.5 115.0 132.0
v 105.5 116.0 130.0
v 105.5 116.0 131.0
v 105.5 116.0 132.0
v 107.0 103.0 131.5
v 107.0 102.5 132.0
v 107.0 102.5 133.0
v 107.0 103.0 133.5
v 107.0 103.5 132.0
v 106.5 104.0 132.0
v 106.5 104.0 133.0
v 107.0 103.5 133.0
v 107.0 105.0 127.5
v 107.0 104.5 128.0
v 107.0 104.5 129.0
v 106.5 105.0 130.0
v 107.0 105.0 129.5
v 106.5 105.0 131.0
v 106.5 105.0 132.0
v 106.5 105.0 133.0
v 107.0 106.0 126.5
v 107.0 105.5 127.0
v 107.0 105.5 130.0
v 107.0 105.5 131.0
v 107.0 105.5 132.0
v 107.0 105.5 133.0
v 107.0 105.5 134.0
v 106.5 106.0 135.0
v 107.0 106.0 134.5
v 107.0 106.5 127.0
v 107.0 107.0 127.5
v 107.0 106.5 135.0
v 106.5 107.0 136.0
v 107.0 107.0 135.5
v 106.5 108.0 127.0
v 107.0 107.5 128.0
v 106.5 108.0 128.0
v 106.5 108.0 129.0
v 107.0 107.5 129.0
v 107.0 108.0 129.5
v 106.5 108.0 136.0
v 107.0 108.0 135.5
v 107.0 108.5 128.0
v 107.0 109.0 127.5
v 107.0 108.5 129.0
v 107.0 108.5 136.0
v 107.0 109.0 136.5
v 106.5 110.0 127.0
v 107.0 110.0 127.5
v 106.5 110.0 136.0
v 107.0 109.5 136.0
v 107.0 110.0 135.5
v 106.5 111.0 127.0
v 107.0 110.5 128.0
v 106.5 111.0 128.0
v 107.0 111.0 128.5
v 107.0 110.5 135.0
v 107.0 111.0 134.5
v 106.5 112.0 128.0
v 107.0 111.5 129.0
v 106.5 112.0 129.0
v 107.0 112.0 129.5
v 106.5 112.0 133.0
v 107.0 111.5 133.0
v 107.0 112.0 132.5
v 107.0 111.5 134.0
v 106.5 113.0 130.0
v 107.0 112.5 130.0
v 106.5 113.0 131.0
v 107.0 112.5 131.0
v 106.5 113.0 132.0
v 107.0 112.5 132.0
v 107.5 103.0 132.0
v 107.5 103.0 133.0
v 107.5 105.0 128.0
v 107.5 105.0 129.0
v 107.5 106.0 127.0
v 107.5 106.0 128.0
v 107.5 106.0 129.0
v 107.5 106.0 130.0
v 108.0 106.0 130.5
v 108.0 105.5 131.0
v 108.0 105.5 132.0
v 107.5 106.0 133.0
v 108.0 106.0 132.5
v 107.5 106.0 134.0
v 107.5 107.0 128.0
v 107.5 107.0 129.0
v 108.0 107.0 129.5
v 108.0 106.5 130.0
v 107.5 107.0 132.0
v 108.0 106.5 132.0
v 108.0 107.0 131.5
v 107.5 107.0 133.0
v 107.5 107.0 134.0
v 107.5 107.0 135.0
v 107.5 108.0 130.0
v 108.0 107.5 130.0
v 108.0 108.0 130.5
v 108.0 107.5 132.0
v 108.0 107.5 133.0
v 108.0 107.5 134.0
v 108.0 108.0 134.5
v 107.5 108.0 135.0
v 107.5 109.0 128.0
v 108.0 109.0 128.5
v 108.0 108.5 129.0
v 108.0 108.5 130.0
v 107.5 109.0 135.0
v 108.0 109.0 134.5
v 107.5 109.0 136.0
v 107.5 110.0 128.0
v 108.0 109.5 129.0
v 107.5 110.0 129.0
v 107.5 110.0 130.0
v 108.0 109.5 130.0
v 108.0 110.0 130.5
v 107.5 110.0 134.0
v 108.0 109.5 134.0
v 108.0 110.0 133.5
v 107.5 110.0 135.0
v 107.5 111.0 129.0
v 107.5 111.0 130.0
v 108.0 110.5 131.0
v 107.5 111.0 131.0
v 107.5 111.0 132.0
v 108.0 110.5 132.0
v 107.5 111.0 133.0
v 108.0 110.5 133.0
v 107.5 111.0 134.0
v 107.5 112.0 130.0
v 107.5 112.0 131.0
v 107.5 112.0 132.0
v 108.5 106.0 131.0
v 108.5 106.0 132.0
v 108.5 107.0 130.0
v 108.5 107.0 131.0
v 108.5 108.0 131.0
v 108.5 108.0 132.0
v 108.5 108.0 133.0
v 108.5 108.0 134.0
v 108.5 109.0 129.0
v 108.5 109.0 130.0
v 108.5 109.0 131.0
v 108.5 109.0 132.0
v 108.5 109.0 133.0
v 108.5 109.0 134.0
v 108.5 110.0 131.0
v 108.5 110.0 132.0
v 108.5 110.0 133.0
v 113.5 118.0 118.0
v 114.0 118.0 117.5
v 114.0 117.5 118.0
v 114.0 118.0 118.5
v 114.0 118.5 118.0
v 115.0 118.0 117.5
v 115.0 117.5 118.0
v 115.0 118.0 118.5
v 114.5 119.0 118.0
v 115.0 119.0 117.5
v 115.0 119.0 118.5
v 115.0 119.5 118.0
v 116.0 118.0 117.5
v 116.0 117.5 118.0
v 116.0 118.0 118.5
v 116.0 119.0 117.5
v 116.0 119.0 118.5
v 116.0 119.5 118.0
v 116.5 112.0 118.0
v 117.0 112.0 117.5
v 117.0 111.5 118.0
v 117.0 112.0 118.5
v 116.5 113.0 118.0
v 117.0 113.0 117.5
v 117.0 113.0 118.5
v 116.5 114.0 118.0
v 117.0 114.0 117.5
v 117.0 114.0 118.5
v 117.0 114.5 118.0
v 116.5 118.0 118.0
v 116.5 119.0 118.0
v 117.5 111.0 118.0
v 118.0 111.0 117.5
v 118.0 110.5 118.0
v 118.0 110.5 119.0
v 117.5 111.0 119.0
v 118.0 110.5 120.0
v 117.5 111.0 120.0
v 118.0 111.0 120.5
v 118.0 112.0 117.5
v 117.5 112.0 119.0
v 118.0 112.0 119.5
v 118.0 111.5 120.0
v 117.5 113.0 117.0
v 118.0 113.0 116.5
v 118.0 112.5 117.0
v 117.5 113.0 119.0
v 118.0 113.0 119.5
v 117.5 114.0 117.0
v 118.0 114.0 116.5
v 118.0 113.5 119.0
v 118.0 114.0 118.5
v 118.0 114.5 117.0
v 117.5 115.0 118.0
v 118.0 115.0 117.5
v 118.0 115.0 118.5
v 118.0 115.5 118.0
v 118.5 111.0 118.0
v 118.5 111.0 119.0
v 118.5 111.0 120.0
v 119.0 112.0 117.5
v 119.0 111.5 118.0
v 119.0 112.0 118.5
v 118.5 112.0 119.0
v 118.5 113.0 117.0
v 119.0 113.0 117.5
v 118.5 113.0 119.0
v 119.0 113.0 118.5
v 118.5 114.0 117.0
v 119.0 114.0 117.5
v 119.0 114.0 118.5
v 118.5 115.0 118.0
v 119.0 114.5 118.0
v 119.5 112.0 118.0
v 119.5 113.0 118.0
v 119.5 114.0 118.0
f 3 2 1
f 1 4 3
f 2 5 1
f 1 5 4
f 8 7 6
f 10 9 6
f 6 9 8
f 12 11 10
f 10 11 9
f 12 13 11
f 6 7 14
f 14 7 15
f 6 16 10
f 6 14 16
f 10 17 12
f 10 16 17
f 13 12 18
f 18 12 17
f 14 15 19
f 19 15 20
f 14 21 16
f 14 19 21
f 16 22 17
f 16 21 22
f 18 17 23
f 23 17 22
f 19 20 24
f 24 20 25
f 19 26 21
f 19 24 26
f 28 22 27
f 22 26 27
f 22 21 26
f 22 28 23
f 25 29 24
f 24 29 26
f 26 29 30
f 26 30 27
f 33 32 31
f 35 34 31
f 31 34 33
f 35 36 34
f 39 38 37
f 39 37 32
f 32 37 31
f 37 2 31
f 2 3 31
f 35 31 40
f 31 4 40
f 4 41 40
f 4 31 3
f 35 40 36
f 44 43 42
f 44 42 38
f 42 37 38
f 42 45 37
f 46 5 2
f 37 46 2
f 45 46 37
f 46 47 5
f 47 4 5
f 47 41 4
f 50 49 48
f 52 51 48
f 48 51 50
f 51 52 43
f 52 42 43
f 52 53 42
f 55 45 54
f 45 53 54
f 45 42 53
f 45 55 46
f 46 55 56
f 46 56 47
f 49 57 48
f 59 58 57
f 58 48 57
f 58 52 48
f 58 7 8
f 53 58 8
f 52 58 53
f 60 54 53
f 8 60 53
f 9 60 8
f 61 9 11
f 61 60 9
f 11 13 61
f 61 13 62
f 58 59 63
f 63 59 64
f 63 15 7
f 63 7 58
f 18 62 13
f 18 65 62
f 63 64 66
f 66 64 67
f 66 20 15
f 66 15 63
f 23 65 18
f 23 68 65
f 67 69 66
f 20 66 69
f 70 20 69
f 25 20 70
f 72 71 28
f 72 28 27
f 23 28 68
f 68 28 71
f 70 73 25
f 25 73 29
f 29 74 30
f 73 74 29
f 27 30 72
f 72 30 74
f 77 76 75
f 75 78 77
f 76 79 75
f 75 79 78
f 82 81 80
f 32 33 80
f 33 82 80
f 33 83 82
f 85 83 84
f 83 34 84
f 83 33 34
f 36 84 34
f 80 81 39
f 81 38 39
f 81 86 38
f 80 39 32
f 40 41 87
f 84 88 85
f 88 84 89
f 84 36 89
f 40 87 89
f 40 89 36
f 90 43 44
f 91 90 44
f 38 91 44
f 86 91 38
f 47 92 87
f 47 87 41
f 89 87 93
f 93 87 92
f 95 94 50
f 50 94 49
f 96 50 51
f 96 95 50
f 51 43 90
f 97 51 90
f 96 51 97
f 55 54 98
f 90 91 97
f 99 56 55
f 99 55 98
f 99 100 56
f 56 100 47
f 100 101 47
f 101 92 47
f 92 101 93
f 94 102 49
f 49 102 57
f 59 57 102
f 59 102 103
f 60 98 54
f 98 60 61
f 98 61 99
f 61 62 99
f 62 100 99
f 62 104 100
f 106 64 105
f 64 103 105
f 64 59 103
f 107 106 105
f 65 104 62
f 65 108 104
f 109 67 106
f 106 67 64
f 106 107 110
f 106 110 109
f 68 108 65
f 68 111 108
f 109 69 67
f 70 69 109
f 110 70 109
f 112 70 110
f 72 113 71
f 113 114 71
f 114 68 71
f 114 111 68
f 112 115 70
f 70 115 73
f 73 116 74
f 115 116 73
f 72 74 113
f 74 117 113
f 74 116 117
f 113 117 114
f 120 119 118
f 118 121 120
f 124 123 122
f 124 122 119
f 122 118 119
f 122 125 118
f 121 118 126
f 126 118 125
f 127 76 77
f 123 128 122
f 127 77 78
f 122 128 125
f 125 128 129
f 125 129 126
f 127 79 76
f 79 127 78
f 131 130 82
f 82 130 81
f 132 82 83
f 132 131 82
f 134 133 85
f 133 83 85
f 133 132 83
f 134 135 133
f 138 137 136
f 140 139 136
f 136 139 138
f 130 139 140
f 86 130 140
f 81 130 86
f 88 134 85
f 88 89 134
f 89 135 134
f 89 141 135
f 144 143 142
f 144 142 137
f 142 136 137
f 142 145 136
f 136 146 140
f 136 145 146
f 146 91 86
f 146 86 140
f 93 141 89
f 93 147 141
f 142 143 95
f 143 94 95
f 143 148 94
f 142 95 96
f 142 96 145
f 145 96 97
f 145 97 146
f 146 97 91
f 100 149 101
f 149 150 101
f 150 93 101
f 150 147 93
f 148 151 94
f 94 151 102
f 103 102 151
f 103 151 152
f 154 153 149
f 100 154 149
f 104 154 100
f 149 153 150
f 152 155 103
f 103 155 105
f 107 105 155
f 107 155 156
f 108 158 157
f 154 108 157
f 104 108 154
f 158 159 157
f 156 110 107
f 160 110 156
f 111 161 158
f 111 158 108
f 159 158 162
f 162 158 161
f 164 112 163
f 112 160 163
f 112 110 160
f 165 164 163
f 114 166 161
f 114 161 111
f 162 161 167
f 167 161 166
f 164 115 112
f 165 168 164
f 168 115 164
f 168 116 115
f 116 169 117
f 168 169 116
f 114 117 166
f 117 170 166
f 117 169 170
f 166 170 167
f 173 172 171
f 171 174 173
f 172 175 171
f 171 175 174
f 177 176 120
f 120 176 119
f 120 121 177
f 177 121 178
f 180 179 124
f 124 179 123
f 124 119 176
f 124 176 180
f 126 178 121
f 126 181 178
f 179 182 123
f 123 182 128
f 128 183 129
f 182 183 128
f 126 129 181
f 181 129 183
f 185 184 131
f 131 184 130
f 186 131 132
f 186 185 131
f 187 132 133
f 187 186 132
f 133 135 187
f 187 135 188
f 191 190 189
f 137 138 189
f 138 191 189
f 138 192 191
f 193 138 139
f 193 192 138
f 139 130 184
f 139 184 193
f 141 188 135
f 141 194 188
f 189 190 144
f 190 143 144
f 190 195 143
f 189 144 137
f 147 197 196
f 194 147 196
f 141 147 194
f 197 198 196
f 195 148 143
f 199 148 195
f 201 200 197
f 147 201 197
f 150 201 147
f 197 200 198
f 199 202 148
f 148 202 151
f 204 203 152
f 151 204 152
f 202 204 151
f 205 203 204
f 207 206 153
f 207 153 154
f 150 153 201
f 201 153 206
f 203 155 152
f 156 155 203
f 205 156 203
f 208 156 205
f 209 207 154
f 209 154 157
f 157 159 209
f 209 159 210
f 212 160 211
f 160 208 211
f 160 156 208
f 213 212 211
f 162 210 159
f 162 214 210
f 212 163 160
f 165 163 212
f 213 165 212
f 215 165 213
f 167 217 216
f 214 167 216
f 162 167 214
f 217 218 216
f 215 219 165
f 165 219 168
f 219 221 220
f 169 219 220
f 168 219 169
f 169 220 222
f 223 169 222
f 170 169 223
f 167 170 217
f 170 224 217
f 170 223 224
f 217 224 218
f 221 225 220
f 220 225 222
f 226 172 173
f 174 226 173
f 229 228 227
f 227 230 229
f 226 175 172
f 175 226 174
f 228 231 227
f 227 231 230
f 234 233 232
f 232 235 234
f 233 236 232
f 232 236 235
f 237 176 177
f 178 237 177
f 239 238 180
f 180 238 179
f 239 180 176
f 240 239 176
f 237 240 176
f 239 240 241
f 181 240 178
f 178 240 237
f 238 242 179
f 179 242 182
f 240 183 241
f 183 242 241
f 183 182 242
f 183 240 181
f 244 243 185
f 185 243 184
f 245 185 186
f 245 244 185
f 246 186 187
f 246 245 186
f 187 188 246
f 246 188 247
f 248 190 191
f 248 191 249
f 191 250 249
f 191 192 250
f 251 192 193
f 251 250 192
f 193 184 243
f 193 243 251
f 194 247 188
f 194 252 247
f 253 195 248
f 248 195 190
f 248 249 254
f 255 248 254
f 253 248 255
f 256 255 254
f 257 252 194
f 257 194 196
f 196 198 257
f 257 198 258
f 259 199 253
f 253 199 195
f 255 261 260
f 259 255 260
f 253 255 259
f 261 255 256
f 264 263 262
f 266 265 262
f 266 262 263
f 200 201 265
f 266 200 265
f 267 200 266
f 198 200 258
f 258 200 267
f 259 202 199
f 260 268 259
f 268 202 259
f 268 204 202
f 270 269 205
f 204 270 205
f 268 270 204
f 271 269 270
f 264 262 272
f 264 272 273
f 207 272 206
f 272 265 206
f 272 262 265
f 206 265 201
f 274 208 269
f 269 208 205
f 269 271 275
f 269 275 274
f 276 273 272
f 276 272 207
f 209 276 207
f 277 276 209
f 209 210 277
f 277 210 278
f 274 211 208
f 213 211 274
f 275 213 274
f 279 213 275
f 282 281 280
f 281 278 280
f 278 214 280
f 278 210 214
f 284 215 283
f 215 279 283
f 215 213 279
f 285 284 283
f 282 280 286
f 282 286 287
f 286 280 214
f 288 286 214
f 216 288 214
f 289 286 288
f 216 218 288
f 288 218 290
f 284 219 215
f 292 291 221
f 292 221 219
f 285 292 219
f 284 285 219
f 291 292 287
f 291 287 286
f 222 291 286
f 223 222 286
f 289 293 286
f 293 223 286
f 293 224 223
f 218 224 290
f 290 224 293
f 291 225 221
f 225 291 222
f 296 295 294
f 298 297 294
f 294 297 296
f 298 299 297
f 302 301 300
f 300 303 302
f 294 295 304
f 304 295 305
f 304 228 229
f 298 304 229
f 294 304 298
f 229 230 298
f 230 299 298
f 230 306 299
f 300 301 307
f 307 301 308
f 303 300 309
f 309 300 307
f 304 305 310
f 310 305 311
f 312 231 228
f 304 312 228
f 310 312 304
f 306 230 313
f 230 312 313
f 312 314 313
f 230 231 312
f 314 315 313
f 307 308 316
f 316 308 317
f 309 307 318
f 318 307 316
f 311 319 310
f 310 319 312
f 312 319 320
f 312 320 314
f 314 320 321
f 314 321 315
f 323 322 234
f 234 322 233
f 234 235 323
f 323 235 324
f 316 317 325
f 325 317 326
f 318 316 327
f 327 316 325
f 322 328 233
f 233 328 236
f 235 236 324
f 324 236 328
f 326 329 325
f 325 329 327
f 331 330 239
f 239 330 238
f 333 332 241
f 332 239 241
f 332 331 239
f 333 334 332
f 330 335 238
f 238 335 242
f 241 242 333
f 242 336 333
f 242 335 336
f 333 336 334
f 337 243 244
f 337 244 338
f 244 339 338
f 244 245 339
f 341 339 340
f 339 246 340
f 339 245 246
f 247 340 246
f 342 249 250
f 251 343 250
f 250 343 342
f 243 337 251
f 337 343 251
f 337 344 343
f 337 338 345
f 337 345 344
f 341 340 346
f 341 346 347
f 252 346 247
f 247 346 340
f 342 254 249
f 254 342 256
f 342 348 256
f 342 343 348
f 349 343 344
f 348 343 349
f 344 345 350
f 351 344 350
f 349 344 351
f 351 350 347
f 346 351 347
f 352 351 346
f 257 353 252
f 353 346 252
f 353 352 346
f 258 353 257
f 354 260 261
f 256 348 261
f 348 354 261
f 348 355 354
f 356 348 349
f 355 348 356
f 264 356 263
f 356 351 263
f 356 349 351
f 263 351 266
f 266 351 352
f 266 352 267
f 267 352 353
f 267 353 258
f 354 268 260
f 268 354 270
f 270 354 355
f 270 355 271
f 355 357 271
f 355 356 357
f 273 357 264
f 264 357 356
f 358 275 357
f 357 275 271
f 358 357 273
f 359 358 273
f 276 359 273
f 360 358 359
f 362 359 361
f 359 277 361
f 359 276 277
f 278 361 277
f 363 279 358
f 358 279 275
f 358 360 364
f 358 364 363
f 362 361 281
f 282 362 281
f 365 362 282
f 281 361 278
f 363 283 279
f 285 283 363
f 364 285 363
f 366 285 364
f 287 368 367
f 365 287 367
f 282 287 365
f 289 288 368
f 288 367 368
f 288 369 367
f 288 290 369
f 369 290 370
f 292 285 371
f 285 372 371
f 285 366 372
f 368 287 292
f 371 368 292
f 373 368 371
f 368 373 289
f 373 374 289
f 374 293 289
f 373 375 374
f 290 293 370
f 370 293 374
f 372 376 371
f 371 376 373
f 373 376 377
f 373 377 375
f 380 379 378
f 378 381 380
f 378 379 382
f 382 379 383
f 381 378 384
f 378 385 384
f 378 382 385
f 385 386 384
f 383 387 382
f 389 388 387
f 388 382 387
f 388 385 382
f 386 385 390
f 385 391 390
f 385 388 391
f 391 392 390
f 388 389 393
f 393 389 394
f 388 395 391
f 388 393 395
f 392 391 396
f 396 391 395
f 394 397 393
f 393 397 395
f 395 397 398
f 395 398 396
f 400 399 296
f 296 399 295
f 401 296 297
f 401 400 296
f 297 299 401
f 401 299 402
f 404 403 302
f 302 403 301
f 406 405 303
f 405 302 303
f 405 404 302
f 406 407 405
f 399 305 295
f 408 305 399
f 306 402 299
f 306 409 402
f 412 411 410
f 403 412 410
f 308 403 410
f 301 403 308
f 309 413 406
f 309 406 303
f 407 406 414
f 414 406 413
f 408 311 305
f 415 311 408
f 416 409 306
f 416 306 313
f 313 315 416
f 416 315 417
f 411 418 410
f 308 410 418
f 419 308 418
f 317 308 419
f 318 420 413
f 318 413 309
f 414 413 421
f 421 413 420
f 319 311 422
f 311 423 422
f 311 415 423
f 424 320 319
f 424 319 422
f 320 424 425
f 426 320 425
f 321 320 426
f 315 321 417
f 417 321 426
f 428 427 323
f 323 427 322
f 323 324 428
f 428 324 429
f 432 431 430
f 430 433 432
f 419 326 317
f 434 326 419
f 327 435 420
f 327 420 318
f 421 420 436
f 436 420 435
f 423 437 422
f 422 437 424
f 424 437 438
f 424 438 425
f 427 439 322
f 322 439 328
f 324 328 429
f 429 328 439
f 442 441 440
f 442 440 431
f 440 430 431
f 440 443 430
f 433 430 444
f 430 445 444
f 430 443 445
f 329 447 446
f 447 329 445
f 326 445 329
f 445 326 444
f 434 444 326
f 327 329 435
f 329 448 435
f 329 446 448
f 435 448 436
f 451 450 449
f 449 452 451
f 440 441 453
f 453 441 454
f 453 330 331
f 443 453 331
f 440 453 443
f 443 331 332
f 443 332 445
f 332 334 445
f 334 447 445
f 334 455 447
f 450 456 449
f 449 456 452
f 454 457 453
f 453 457 330
f 457 335 330
f 457 458 335
f 335 459 336
f 458 459 335
f 334 336 455
f 455 336 459
f 462 461 460
f 460 463 462
f 461 464 460
f 460 464 463
f 465 338 339
f 341 465 339
f 466 345 465
f 465 345 338
f 347 466 341
f 341 466 465
f 466 350 345
f 350 466 347
f 467 360 359
f 362 467 359
f 469 468 467
f 468 360 467
f 468 364 360
f 467 362 469
f 362 470 469
f 362 365 470
f 472 366 471
f 366 468 471
f 366 364 468
f 473 472 367
f 472 470 367
f 470 365 367
f 470 472 471
f 369 474 367
f 367 474 473
f 370 474 369
f 475 372 472
f 472 372 366
f 476 472 473
f 475 472 476
f 375 476 374
f 476 474 374
f 476 473 474
f 374 474 370
f 475 376 372
f 376 475 377
f 377 475 476
f 377 476 375
f 479 478 477
f 481 480 477
f 477 480 479
f 481 482 480
f 478 483 477
f 477 483 481
f 481 483 484
f 481 484 482
f 486 485 380
f 380 485 379
f 488 487 381
f 487 380 381
f 487 486 380
f 488 489 487
f 492 491 490
f 490 493 492
f 485 383 379
f 494 383 485
f 384 488 381
f 384 386 488
f 386 489 488
f 386 495 489
f 491 496 490
f 490 496 493
f 387 383 497
f 383 498 497
f 383 494 498
f 497 389 387
f 499 495 386
f 499 386 390
f 390 392 499
f 499 392 500
f 497 498 501
f 501 498 502
f 501 394 389
f 501 389 497
f 396 500 392
f 396 503 500
f 502 504 501
f 501 504 394
f 504 397 394
f 504 505 397
f 397 506 398
f 505 506 397
f 396 507 503
f 507 396 508
f 398 508 396
f 508 398 509
f 506 509 398
f 508 510 507
f 513 512 511
f 511 514 513
f 509 515 508
f 508 515 510
f 518 517 516
f 516 519 518
f 512 520 511
f 511 520 514
f 516 517 521
f 521 517 522
f 519 516 523
f 523 516 521
f 525 524 400
f 400 524 399
f 527 525 526
f 525 401 526
f 525 400 401
f 402 526 401
f 529 528 404
f 404 528 403
f 405 521 522
f 529 405 522
f 404 405 529
f 405 407 521
f 407 523 521
f 407 530 523
f 532 408 531
f 408 524 531
f 408 399 524
f 527 526 533
f 531 534 532
f 526 402 533
f 402 535 533
f 402 409 535
f 537 536 412
f 412 536 411
f 412 403 528
f 412 528 537
f 414 530 407
f 414 538 530
f 539 415 532
f 532 415 408
f 532 534 540
f 541 532 540
f 539 532 541
f 543 542 416
f 542 544 416
f 541 416 544
f 416 541 409
f 540 409 541
f 409 540 542
f 542 535 409
f 543 535 542
f 542 540 544
f 546 545 417
f 545 416 417
f 545 543 416
f 548 547 546
f 546 547 545
f 550 549 548
f 548 549 547
f 550 551 549
f 418 411 552
f 411 553 552
f 411 536 553
f 552 419 418
f 421 538 414
f 421 554 538
f 555 423 539
f 539 423 415
f 541 557 556
f 555 541 556
f 539 541 555
f 426 425 558
f 541 544 557
f 546 417 426
f 558 546 426
f 559 546 558
f 559 427 428
f 548 559 428
f 546 559 548
f 550 548 560
f 548 429 560
f 429 561 560
f 429 548 428
f 550 560 551
f 563 562 432
f 432 562 431
f 564 552 433
f 552 563 433
f 563 432 433
f 552 553 563
f 564 434 419
f 564 419 552
f 436 554 421
f 436 565 554
f 555 437 423
f 556 566 555
f 566 437 555
f 566 438 437
f 425 438 558
f 438 567 558
f 438 566 567
f 558 567 559
f 559 567 568
f 559 568 427
f 568 439 427
f 568 569 439
f 429 439 561
f 561 439 569
f 572 571 570
f 441 442 570
f 442 572 570
f 442 573 572
f 442 431 562
f 442 562 573
f 444 564 433
f 434 564 444
f 446 447 574
f 446 574 575
f 576 446 575
f 448 446 576
f 436 448 565
f 565 448 576
f 578 577 451
f 451 577 450
f 451 452 578
f 578 452 579
f 571 580 570
f 441 570 580
f 581 441 580
f 454 441 581
f 583 582 574
f 447 583 574
f 455 583 447
f 574 582 575
f 577 584 450
f 450 584 456
f 452 456 579
f 579 456 584
f 581 585 454
f 454 585 457
f 457 586 458
f 585 586 457
f 458 587 459
f 586 587 458
f 455 459 583
f 583 459 587
f 588 461 462
f 463 588 462
f 588 464 461
f 464 588 463
f 589 468 469
f 470 589 469
f 589 471 468
f 471 589 470
f 591 590 479
f 479 590 478
f 592 479 480
f 592 591 479
f 594 593 482
f 593 480 482
f 593 592 480
f 594 595 593
f 598 597 596
f 596 599 483
f 590 596 483
f 478 590 483
f 596 590 598
f 600 484 483
f 600 483 599
f 594 482 484
f 600 594 484
f 601 594 600
f 595 594 602
f 602 594 601
f 596 597 603
f 603 597 604
f 596 605 599
f 596 603 605
f 599 606 600
f 599 605 606
f 606 485 486
f 601 606 486
f 600 606 601
f 607 602 601
f 486 607 601
f 487 607 486
f 609 608 489
f 608 487 489
f 608 607 487
f 609 610 608
f 604 611 603
f 612 491 492
f 603 612 492
f 605 603 492
f 611 612 603
f 605 492 493
f 613 605 493
f 606 605 613
f 613 494 485
f 613 485 606
f 495 614 609
f 495 609 489
f 610 609 615
f 615 609 614
f 612 616 491
f 491 616 496
f 496 616 493
f 616 617 493
f 617 613 493
f 617 616 618
f 617 498 494
f 617 494 613
f 499 614 495
f 620 619 500
f 500 619 499
f 619 615 499
f 615 614 499
f 620 621 619
f 617 618 622
f 622 618 623
f 622 502 498
f 622 498 617
f 625 624 620
f 500 625 620
f 503 625 500
f 620 624 621
f 622 623 626
f 626 623 627
f 628 504 502
f 622 628 502
f 626 628 622
f 629 505 504
f 629 504 628
f 630 506 505
f 630 505 629
f 632 631 507
f 632 509 631
f 509 632 630
f 625 630 632
f 630 625 506
f 631 506 625
f 625 503 631
f 631 503 507
f 509 506 631
f 507 510 632
f 632 510 633
f 627 634 626
f 636 635 634
f 635 626 634
f 635 628 626
f 635 512 513
f 629 635 513
f 628 635 629
f 630 629 637
f 629 514 637
f 514 638 637
f 514 629 513
f 630 637 509
f 637 515 509
f 637 639 515
f 510 515 633
f 633 515 639
f 642 641 640
f 517 518 640
f 518 642 640
f 518 643 642
f 518 519 643
f 643 519 644
f 636 645 635
f 635 645 512
f 645 520 512
f 645 646 520
f 514 520 638
f 638 520 646
f 640 641 647
f 647 641 648
f 647 522 517
f 647 517 640
f 523 644 519
f 523 649 644
f 650 524 525
f 527 650 525
f 653 652 651
f 653 651 648
f 648 651 647
f 651 528 647
f 528 529 647
f 647 529 522
f 530 649 523
f 530 654 649
f 650 531 524
f 534 531 655
f 531 650 655
f 527 533 655
f 527 655 650
f 535 655 533
f 658 657 656
f 658 656 652
f 652 656 651
f 656 536 651
f 536 537 651
f 651 537 528
f 538 654 530
f 538 659 654
f 655 540 534
f 544 540 660
f 655 660 540
f 660 655 661
f 535 661 655
f 661 535 543
f 662 543 545
f 662 661 543
f 663 545 547
f 663 662 545
f 664 547 549
f 664 663 547
f 549 551 664
f 664 551 665
f 656 657 666
f 666 657 667
f 666 553 536
f 666 536 656
f 554 659 538
f 554 668 659
f 670 669 557
f 557 669 556
f 557 544 660
f 557 660 670
f 673 672 671
f 560 561 671
f 672 560 671
f 674 560 672
f 551 560 665
f 665 560 674
f 666 667 563
f 667 562 563
f 667 675 562
f 666 563 553
f 565 668 554
f 565 676 668
f 669 677 556
f 556 677 566
f 566 678 567
f 677 678 566
f 567 679 568
f 678 679 567
f 671 569 673
f 569 679 673
f 569 568 679
f 569 671 561
f 680 571 572
f 680 572 681
f 572 682 681
f 572 573 682
f 573 562 675
f 573 675 682
f 684 683 576
f 684 576 575
f 565 576 676
f 676 576 683
f 686 685 578
f 578 685 577
f 688 687 579
f 687 578 579
f 687 686 578
f 687 680 689
f 680 687 571
f 688 571 687
f 571 688 580
f 690 580 688
f 581 580 690
f 681 689 680
f 693 692 691
f 695 694 691
f 695 691 692
f 696 694 695
f 698 697 582
f 698 582 583
f 575 582 684
f 684 582 697
f 685 699 577
f 577 699 584
f 579 584 688
f 584 700 688
f 584 699 700
f 688 700 690
f 690 700 701
f 693 691 701
f 691 585 701
f 581 690 701
f 581 701 585
f 585 691 586
f 586 691 694
f 696 702 694
f 702 586 694
f 702 587 586
f 583 587 698
f 698 587 702
f 705 704 703
f 707 706 703
f 703 706 705
f 709 708 707
f 707 708 706
f 709 710 708
f 703 704 591
f 704 590 591
f 704 711 590
f 703 591 592
f 703 592 707
f 707 592 593
f 707 593 709
f 593 595 709
f 595 710 709
f 595 712 710
f 715 714 713
f 597 598 713
f 598 715 713
f 598 716 715
f 598 590 711
f 598 711 716
f 602 718 717
f 712 602 717
f 595 602 712
f 718 719 717
f 722 721 720
f 720 723 722
f 713 714 724
f 724 714 725
f 724 604 597
f 724 597 713
f 607 718 602
f 726 719 718
f 607 726 718
f 608 726 607
f 727 720 610
f 720 726 610
f 726 608 610
f 720 721 726
f 723 720 728
f 728 720 727
f 725 729 724
f 724 729 604
f 729 611 604
f 729 730 611
f 612 611 730
f 612 730 731
f 615 732 727
f 615 727 610
f 728 727 733
f 733 727 732
f 731 734 612
f 612 734 616
f 618 616 734
f 618 734 735
f 732 615 619
f 738 737 736
f 737 738 621
f 738 733 621
f 732 619 621
f 732 621 733
f 735 623 618
f 739 623 735
f 736 737 624
f 625 736 624
f 740 736 625
f 624 737 621
f 739 627 623
f 741 627 739
f 744 743 742
f 745 742 632
f 742 740 632
f 740 625 632
f 740 742 743
f 633 745 632
f 741 746 627
f 627 746 634
f 636 634 746
f 636 746 747
f 744 742 637
f 638 744 637
f 748 744 638
f 637 742 639
f 639 742 745
f 639 745 633
f 749 641 642
f 643 750 642
f 642 750 749
f 644 750 643
f 747 751 636
f 636 751 645
f 645 752 646
f 751 752 645
f 638 646 748
f 748 646 752
f 753 648 749
f 749 648 641
f 754 749 750
f 753 749 754
f 649 754 644
f 644 754 750
f 756 755 653
f 653 755 652
f 653 648 753
f 757 653 753
f 756 653 757
f 759 758 757
f 753 759 757
f 754 759 753
f 654 759 649
f 649 759 754
f 761 760 658
f 658 760 657
f 658 652 755
f 658 755 761
f 762 758 759
f 759 654 762
f 654 763 762
f 654 659 763
f 765 764 661
f 661 764 660
f 766 661 662
f 766 765 661
f 767 662 663
f 767 766 662
f 769 767 768
f 767 664 768
f 767 663 664
f 665 768 664
f 760 667 657
f 770 667 760
f 668 763 659
f 668 771 763
f 773 772 670
f 670 772 669
f 670 660 764
f 670 764 773
f 776 775 774
f 672 673 774
f 775 672 774
f 777 672 775
f 768 674 769
f 674 777 769
f 674 672 777
f 674 768 665
f 770 675 667
f 778 675 770
f 781 780 779
f 780 771 779
f 771 676 779
f 771 668 676
f 772 782 669
f 669 782 677
f 677 783 678
f 782 783 677
f 774 679 776
f 679 783 776
f 679 678 783
f 679 774 673
f 785 784 682
f 682 784 681
f 682 675 778
f 682 778 785
f 788 787 786
f 786 787 781
f 786 781 779
f 684 786 779
f 683 684 779
f 683 779 676
f 789 685 686
f 687 790 686
f 686 790 789
f 689 791 687
f 687 791 790
f 692 693 792
f 791 792 693
f 792 791 784
f 689 784 791
f 784 689 681
f 692 793 695
f 792 793 692
f 795 794 696
f 695 795 696
f 793 795 695
f 794 795 788
f 794 788 786
f 698 794 786
f 697 698 786
f 697 786 684
f 789 699 685
f 699 789 700
f 700 789 790
f 700 790 701
f 701 790 791
f 701 791 693
f 794 702 696
f 702 794 698
f 797 796 705
f 705 796 704
f 798 705 706
f 798 797 705
f 799 706 708
f 799 798 706
f 801 800 710
f 800 708 710
f 800 799 708
f 803 802 801
f 801 802 800
f 805 804 803
f 803 804 802
f 805 806 804
f 796 711 704
f 807 711 796
f 712 808 801
f 712 801 710
f 801 809 803
f 801 808 809
f 803 810 805
f 803 809 810
f 806 805 811
f 805 812 811
f 805 810 812
f 812 813 811
f 814 714 715
f 814 715 815
f 715 816 815
f 715 716 816
f 716 711 807
f 716 807 816
f 717 808 712
f 808 717 719
f 817 808 719
f 809 808 817
f 817 721 722
f 810 817 722
f 809 817 810
f 810 722 723
f 818 810 723
f 812 810 818
f 813 812 819
f 819 812 818
f 821 820 814
f 820 714 814
f 820 725 714
f 821 814 815
f 726 817 719
f 817 726 721
f 728 822 818
f 728 818 723
f 819 818 823
f 823 818 822
f 820 824 725
f 725 824 729
f 729 825 730
f 824 825 729
f 731 730 825
f 731 825 826
f 828 827 822
f 728 828 822
f 733 828 728
f 822 827 823
f 734 731 829
f 731 830 829
f 731 826 830
f 829 735 734
f 736 831 738
f 831 832 738
f 832 733 738
f 832 828 733
f 830 833 829
f 735 829 833
f 834 735 833
f 739 735 834
f 740 835 831
f 740 831 736
f 832 831 836
f 836 831 835
f 834 741 739
f 837 741 834
f 839 838 743
f 839 743 744
f 740 743 835
f 743 840 835
f 743 838 840
f 835 840 836
f 837 841 741
f 741 841 746
f 747 746 841
f 747 841 842
f 748 839 744
f 748 843 839
f 842 844 747
f 747 844 751
f 751 845 752
f 844 845 751
f 748 752 843
f 843 752 845
f 846 755 756
f 757 847 756
f 756 847 846
f 758 847 757
f 848 760 761
f 755 846 761
f 846 848 761
f 846 849 848
f 850 846 847
f 849 846 850
f 762 851 758
f 851 847 758
f 851 850 847
f 763 851 762
f 853 852 765
f 765 852 764
f 854 765 766
f 854 853 765
f 855 766 767
f 855 854 766
f 767 769 855
f 855 769 856
f 857 770 848
f 848 770 760
f 858 848 849
f 857 848 858
f 859 849 850
f 858 849 859
f 860 850 851
f 859 850 860
f 771 860 763
f 763 860 851
f 862 861 773
f 773 861 772
f 773 764 852
f 773 852 862
f 864 863 775
f 864 775 776
f 775 865 777
f 863 865 775
f 769 777 856
f 856 777 865
f 866 778 857
f 857 778 770
f 867 857 858
f 866 857 867
f 859 869 868
f 867 859 868
f 858 859 867
f 781 870 780
f 870 859 780
f 859 860 780
f 870 869 859
f 780 860 771
f 861 871 772
f 772 871 782
f 782 872 783
f 871 872 782
f 776 783 864
f 864 783 872
f 873 784 785
f 778 866 785
f 866 873 785
f 866 874 873
f 875 866 867
f 874 866 875
f 876 787 788
f 867 876 788
f 875 867 788
f 876 867 868
f 781 787 870
f 870 787 876
f 873 792 784
f 792 873 793
f 793 873 874
f 793 874 795
f 795 874 875
f 795 875 788
f 879 878 877
f 796 797 877
f 797 879 877
f 797 880 879
f 881 797 798
f 881 880 797
f 882 798 799
f 882 881 798
f 883 799 800
f 883 882 799
f 884 800 802
f 884 883 800
f 885 802 804
f 885 884 802
f 887 886 806
f 886 804 806
f 886 885 804
f 889 888 887
f 887 888 886
f 889 890 888
f 877 878 891
f 891 878 892
f 891 807 796
f 891 796 877
f 811 887 806
f 889 887 893
f 887 813 893
f 813 894 893
f 813 887 811
f 889 893 890
f 891 892 816
f 892 815 816
f 892 895 815
f 891 816 807
f 819 894 813
f 819 896 894
f 897 820 821
f 898 897 821
f 815 898 821
f 895 898 815
f 823 896 819
f 823 899 896
f 897 824 820
f 898 900 897
f 900 824 897
f 900 825 824
f 826 825 900
f 826 900 901
f 903 902 827
f 903 827 828
f 823 827 899
f 899 827 902
f 905 830 904
f 830 901 904
f 830 826 901
f 906 905 904
f 909 908 907
f 908 903 907
f 903 832 907
f 903 828 832
f 905 833 830
f 834 833 905
f 906 834 905
f 910 834 906
f 911 909 907
f 907 832 911
f 832 912 911
f 832 836 912
f 910 837 834
f 913 837 910
f 915 914 838
f 915 838 839
f 838 916 840
f 914 916 838
f 836 840 912
f 912 840 916
f 913 917 837
f 837 917 841
f 842 841 917
f 842 917 918
f 843 915 839
f 843 919 915
f 918 920 842
f 842 920 844
f 844 921 845
f 920 921 844
f 843 845 919
f 919 845 921
f 922 852 853
f 922 853 923
f 853 924 923
f 853 854 924
f 925 854 855
f 925 924 854
f 855 856 925
f 925 856 926
f 927 861 862
f 928 927 862
f 928 862 852
f 929 928 852
f 922 929 852
f 931 930 864
f 930 929 864
f 922 864 929
f 864 922 863
f 923 863 922
f 863 923 930
f 930 932 863
f 931 932 930
f 930 923 929
f 863 933 865
f 932 933 863
f 856 865 926
f 926 865 933
f 934 868 869
f 870 934 869
f 927 871 861
f 928 935 927
f 935 871 927
f 935 872 871
f 864 872 931
f 931 872 935
f 934 876 868
f 876 934 870
f 938 937 936
f 940 939 936
f 936 939 938
f 942 941 940
f 940 941 939
f 944 943 942
f 942 943 941
f 946 945 944
f 944 945 943
f 948 947 946
f 946 947 945
f 950 949 948
f 948 949 947
f 952 951 950
f 950 951 949
f 954 953 952
f 952 953 951
f 954 955 953
f 937 956 936
f 957 878 879
f 936 957 879
f 940 936 879
f 956 957 936
f 940 879 880
f 940 880 942
f 942 880 881
f 942 881 944
f 944 881 882
f 944 882 946
f 946 882 883
f 946 883 948
f 948 883 884
f 948 884 950
f 950 884 885
f 950 885 952
f 952 885 886
f 952 886 954
f 958 955 954
f 886 958 954
f 888 958 886
f 888 890 958
f 958 890 959
f 962 961 960
f 957 962 960
f 892 957 960
f 878 957 892
f 964 963 893
f 964 893 894
f 890 893 959
f 959 893 963
f 961 965 960
f 892 960 965
f 966 892 965
f 895 892 966
f 896 964 894
f 896 967 964
f 970 969 968
f 966 970 968
f 898 966 968
f 895 966 898
f 899 967 896
f 899 971 967
f 969 972 968
f 968 972 898
f 972 900 898
f 972 973 900
f 901 900 973
f 901 973 974
f 976 975 902
f 976 902 903
f 899 902 971
f 971 902 975
f 974 977 901
f 901 977 904
f 906 904 977
f 906 977 978
f 909 979 908
f 979 980 908
f 980 903 908
f 980 976 903
f 978 910 906
f 981 910 978
f 911 979 909
f 911 912 979
f 912 980 979
f 912 982 980
f 981 913 910
f 983 913 981
f 985 984 914
f 985 914 915
f 914 986 916
f 984 986 914
f 912 916 982
f 982 916 986
f 983 987 913
f 913 987 917
f 989 988 918
f 917 989 918
f 987 989 917
f 991 990 988
f 991 988 989
f 991 985 990
f 985 919 990
f 985 915 919
f 988 920 918
f 920 988 921
f 921 988 990
f 921 990 919
f 993 992 924
f 924 992 923
f 995 993 994
f 993 925 994
f 993 924 925
f 926 994 925
f 996 928 929
f 932 931 997
f 996 997 931
f 997 996 992
f 929 992 996
f 992 929 923
f 994 933 995
f 933 997 995
f 933 932 997
f 933 994 926
f 996 935 928
f 935 996 931
f 1000 999 998
f 1002 1001 998
f 998 1001 1000
f 1002 1003 1001
f 999 1004 998
f 1006 1005 1004
f 1005 998 1004
f 1005 1002 998
f 1003 1002 1007
f 1002 1008 1007
f 1002 1005 1008
f 1010 1009 1008
f 1008 1009 1007
f 1012 1011 1010
f 1010 1011 1009
f 1014 1013 1012
f 1012 1013 1011
f 1014 1015 1013
f 1005 1006 1016
f 1016 1006 1017
f 1005 1018 1008
f 1005 1016 1018
f 1008 1019 1010
f 1008 1018 1019
f 1010 1020 1012
f 1010 1019 1020
f 1012 1021 1014
f 1012 1020 1021
f 1015 1014 1022
f 1014 1023 1022
f 1014 1021 1023
f 1025 1024 1023
f 1023 1024 1022
f 1027 1026 1025
f 1025 1026 1024
f 1027 1028 1026
f 1030 1029 938
f 938 1029 937
f 1031 938 939
f 1031 1030 938
f 941 1016 1017
f 1031 941 1017
f 939 941 1031
f 1016 941 943
f 1016 943 1018
f 1018 943 945
f 1018 945 1019
f 1019 945 947
f 1019 947 1020
f 1020 947 949
f 1020 949 1021
f 1021 949 951
f 1021 951 1023
f 1023 951 953
f 1023 953 1025
f 1025 953 955
f 1032 1025 955
f 1027 1025 1032
f 1028 1027 1033
f 1027 1034 1033
f 1027 1032 1034
f 1034 1035 1033
f 956 937 1036
f 937 1037 1036
f 937 1029 1037
f 1036 957 956
f 958 1032 955
f 1034 1032 1038
f 1032 959 1038
f 959 1039 1038
f 959 1032 958
f 1034 1038 1035
f 1041 1040 1037
f 1040 961 1037
f 962 1036 1037
f 962 1037 961
f 962 957 1036
f 1040 1041 1042
f 1044 1043 963
f 1044 963 964
f 959 963 1039
f 1039 963 1043
f 1040 965 961
f 966 965 1040
f 1042 966 1040
f 1045 966 1042
f 967 1044 964
f 967 1046 1044
f 1047 969 970
f 1048 1047 970
f 966 1048 970
f 1045 1048 966
f 971 1046 967
f 971 1049 1046
f 1047 972 969
f 1048 1050 1047
f 1050 972 1047
f 1050 973 972
f 974 973 1050
f 974 1050 1051
f 976 1052 975
f 1052 1053 975
f 1053 971 975
f 1053 1049 971
f 1051 1054 974
f 974 1054 977
f 978 977 1054
f 978 1054 1055
f 1058 1057 1056
f 1057 1059 1052
f 980 1057 1052
f 976 980 1052
f 1056 1057 980
f 1052 1059 1053
f 1061 981 1060
f 981 1055 1060
f 981 978 1055
f 1062 1061 1060
f 1058 1056 1063
f 1058 1063 1064
f 982 1063 980
f 980 1063 1056
f 1065 983 1061
f 1061 983 981
f 1061 1062 1066
f 1061 1066 1065
f 1069 1068 1067
f 984 985 1067
f 1068 984 1067
f 1070 984 1068
f 1063 986 1064
f 986 1070 1064
f 986 984 1070
f 986 1063 982
f 1065 987 983
f 1066 1071 1065
f 1071 987 1065
f 1071 989 987
f 1067 991 1069
f 991 1071 1069
f 991 989 1071
f 991 1067 985
f 1072 992 993
f 995 1072 993
f 1072 997 992
f 997 1072 995
f 1075 1074 1073
f 1077 1076 1073
f 1073 1076 1075
f 1079 1078 1077
f 1077 1078 1076
f 1079 1080 1078
f 1083 1082 1081
f 999 1000 1081
f 1000 1083 1081
f 1000 1084 1083
f 1001 1073 1074
f 1084 1001 1074
f 1000 1001 1084
f 1073 1001 1003
f 1085 1073 1003
f 1077 1073 1085
f 1077 1086 1079
f 1077 1085 1086
f 1080 1079 1087
f 1079 1088 1087
f 1079 1086 1088
f 1090 1089 1088
f 1088 1089 1087
f 1092 1091 1090
f 1090 1091 1089
f 1094 1093 1092
f 1092 1093 1091
f 1094 1095 1093
f 1081 1082 1096
f 1096 1082 1097
f 1098 1004 999
f 1081 1098 999
f 1096 1098 1081
f 1098 1006 1004
f 1007 1085 1003
f 1085 1007 1009
f 1085 1009 1086
f 1086 1009 1011
f 1086 1011 1088
f 1088 1011 1013
f 1088 1013 1090
f 1090 1013 1015
f 1099 1090 1015
f 1092 1090 1099
f 1092 1100 1094
f 1092 1099 1100
f 1095 1094 1101
f 1101 1094 1100
f 1096 1097 1102
f 1102 1097 1103
f 1096 1104 1098
f 1096 1102 1104
f 1104 1017 1006
f 1104 1006 1098
f 1022 1099 1015
f 1099 1022 1024
f 1099 1024 1100
f 1105 1101 1100
f 1024 1105 1100
f 1026 1105 1024
f 1026 1028 1105
f 1105 1028 1106
f 1102 1103 1030
f 1103 1029 1030
f 1103 1107 1029
f 1102 1030 1031
f 1102 1031 1104
f 1104 1031 1017
f 1108 1106 1028
f 1108 1028 1033
f 1033 1035 1108
f 1108 1035 1109
f 1111 1037 1110
f 1037 1107 1110
f 1037 1029 1107
f 1112 1111 1110
f 1114 1113 1038
f 1114 1038 1039
f 1035 1038 1109
f 1109 1038 1113
f 1116 1041 1115
f 1041 1037 1115
f 1115 1037 1111
f 1117 1115 1111
f 1111 1112 1117
f 1041 1116 1042
f 1119 1118 1043
f 1119 1043 1044
f 1039 1043 1114
f 1114 1043 1118
f 1115 1120 1116
f 1042 1116 1120
f 1121 1042 1120
f 1045 1042 1121
f 1046 1119 1044
f 1046 1122 1119
f 1121 1048 1045
f 1123 1048 1121
f 1126 1125 1124
f 1127 1124 1125
f 1049 1122 1046
f 1049 1128 1122
f 1123 1129 1048
f 1048 1129 1050
f 1131 1130 1051
f 1050 1131 1051
f 1129 1131 1050
f 1130 1131 1126
f 1124 1130 1126
f 1132 1130 1124
f 1124 1127 1133
f 1124 1133 1132
f 1136 1135 1134
f 1138 1137 1134
f 1138 1134 1135
f 1138 1128 1137
f 1128 1053 1137
f 1128 1049 1053
f 1130 1054 1051
f 1130 1132 1139
f 1055 1130 1139
f 1140 1055 1139
f 1130 1055 1054
f 1139 1132 1133
f 1136 1134 1057
f 1058 1136 1057
f 1141 1136 1058
f 1057 1134 1059
f 1059 1134 1137
f 1059 1137 1053
f 1140 1142 1055
f 1055 1142 1060
f 1062 1060 1142
f 1062 1142 1143
f 1064 1141 1058
f 1064 1144 1141
f 1146 1066 1145
f 1066 1143 1145
f 1066 1062 1143
f 1068 1069 1146
f 1145 1068 1146
f 1147 1068 1145
f 1068 1148 1070
f 1147 1148 1068
f 1064 1070 1144
f 1144 1070 1148
f 1146 1071 1066
f 1071 1146 1069
f 1151 1150 1149
f 1153 1152 1149
f 1149 1152 1151
f 1153 1154 1152
f 1149 1150 1155
f 1155 1150 1156
f 1149 1157 1153
f 1149 1155 1157
f 1154 1153 1158
f 1158 1153 1157
f 1160 1159 1075
f 1075 1159 1074
f 1161 1075 1076
f 1161 1160 1075
f 1162 1076 1078
f 1162 1161 1076
f 1164 1163 1080
f 1163 1078 1080
f 1163 1162 1078
f 1163 1164 1156
f 1164 1155 1156
f 1164 1165 1155
f 1155 1166 1157
f 1155 1165 1166
f 1158 1157 1167
f 1167 1157 1166
f 1168 1082 1083
f 1168 1083 1169
f 1083 1170 1169
f 1083 1084 1170
f 1084 1074 1159
f 1084 1159 1170
f 1087 1164 1080
f 1164 1087 1089
f 1164 1089 1165
f 1165 1089 1091
f 1165 1091 1166
f 1171 1167 1166
f 1091 1171 1166
f 1093 1171 1091
f 1173 1172 1095
f 1172 1093 1095
f 1172 1171 1093
f 1173 1174 1172
f 1175 1097 1168
f 1168 1097 1082
f 1168 1169 1176
f 1177 1168 1176
f 1175 1168 1177
f 1178 1177 1176
f 1101 1179 1173
f 1101 1173 1095
f 1174 1173 1180
f 1173 1181 1180
f 1173 1179 1181
f 1181 1182 1180
f 1183 1103 1175
f 1175 1103 1097
f 1177 1185 1184
f 1183 1177 1184
f 1175 1177 1183
f 1185 1177 1178
f 1105 1179 1101
f 1179 1105 1106
f 1186 1179 1106
f 1181 1179 1186
f 1182 1181 1187
f 1187 1181 1186
f 1188 1107 1183
f 1183 1107 1103
f 1183 1184 1189
f 1190 1183 1189
f 1188 1183 1190
f 1191 1190 1189
f 1108 1186 1106
f 1108 1109 1186
f 1109 1187 1186
f 1109 1192 1187
f 1188 1110 1107
f 1188 1190 1193
f 1112 1188 1193
f 1194 1112 1193
f 1188 1112 1110
f 1193 1190 1191
f 1114 1195 1113
f 1195 1196 1113
f 1196 1109 1113
f 1196 1192 1109
f 1197 1115 1117
f 1198 1197 1117
f 1112 1198 1117
f 1194 1198 1112
f 1200 1199 1118
f 1200 1118 1119
f 1114 1118 1195
f 1118 1201 1195
f 1118 1199 1201
f 1195 1201 1196
f 1197 1120 1115
f 1203 1202 1121
f 1203 1121 1120
f 1198 1203 1120
f 1197 1198 1120
f 1204 1202 1203
f 1207 1206 1205
f 1206 1200 1205
f 1200 1122 1205
f 1200 1119 1122
f 1208 1123 1202
f 1202 1123 1121
f 1202 1204 1209
f 1210 1202 1209
f 1208 1202 1210
f 1125 1126 1210
f 1209 1125 1210
f 1211 1125 1209
f 1127 1125 1211
f 1127 1211 1212
f 1215 1214 1213
f 1213 1214 1207
f 1205 1213 1207
f 1216 1213 1205
f 1128 1216 1122
f 1122 1216 1205
f 1208 1129 1123
f 1129 1208 1131
f 1131 1208 1210
f 1131 1210 1126
f 1218 1133 1217
f 1133 1212 1217
f 1133 1127 1212
f 1220 1219 1218
f 1220 1218 1217
f 1222 1221 1219
f 1222 1219 1220
f 1221 1222 1215
f 1221 1215 1213
f 1136 1221 1213
f 1135 1136 1213
f 1135 1213 1138
f 1138 1213 1216
f 1138 1216 1128
f 1223 1140 1139
f 1133 1218 1139
f 1218 1223 1139
f 1218 1224 1223
f 1225 1218 1219
f 1224 1218 1225
f 1226 1219 1221
f 1225 1219 1226
f 1141 1226 1136
f 1136 1226 1221
f 1223 1142 1140
f 1142 1223 1143
f 1223 1227 1143
f 1223 1224 1227
f 1228 1224 1225
f 1227 1224 1228
f 1229 1225 1226
f 1228 1225 1229
f 1144 1229 1141
f 1141 1229 1226
f 1227 1145 1143
f 1145 1227 1147
f 1147 1227 1228
f 1147 1228 1148
f 1148 1228 1229
f 1148 1229 1144
f 1231 1230 1151
f 1151 1230 1150
f 1232 1151 1152
f 1232 1231 1151
f 1152 1154 1232
f 1232 1154 1233
f 1235 1156 1234
f 1156 1230 1234
f 1156 1150 1230
f 1237 1236 1235
f 1237 1235 1234
f 1237 1233 1236
f 1233 1158 1236
f 1233 1154 1158
f 1239 1238 1160
f 1160 1238 1159
f 1240 1160 1161
f 1240 1239 1160
f 1242 1240 1241
f 1240 1162 1241
f 1240 1161 1162
f 1163 1243 1162
f 1162 1243 1241
f 1156 1235 1163
f 1235 1243 1163
f 1235 1244 1243
f 1245 1235 1236
f 1244 1235 1245
f 1167 1245 1158
f 1158 1245 1236
f 1247 1246 1170
f 1170 1246 1169
f 1170 1159 1238
f 1170 1238 1247
f 1248 1242 1241
f 1248 1241 1243
f 1248 1243 1249
f 1249 1243 1244
f 1249 1244 1250
f 1250 1244 1245
f 1250 1245 1251
f 1251 1245 1167
f 1171 1251 1167
f 1252 1251 1171
f 1254 1252 1253
f 1252 1172 1253
f 1252 1171 1172
f 1174 1253 1172
f 1246 1255 1169
f 1169 1255 1176
f 1178 1176 1255
f 1178 1255 1256
f 1257 1254 1253
f 1259 1257 1258
f 1258 1257 1180
f 1257 1253 1180
f 1253 1174 1180
f 1182 1258 1180
f 1260 1184 1185
f 1178 1256 1261
f 1260 1178 1261
f 1262 1260 1261
f 1185 1178 1260
f 1264 1263 1262
f 1264 1262 1261
f 1265 1263 1264
f 1259 1258 1266
f 1259 1266 1267
f 1187 1266 1182
f 1182 1266 1258
f 1260 1189 1184
f 1260 1262 1268
f 1191 1260 1268
f 1269 1191 1268
f 1260 1191 1189
f 1268 1262 1263
f 1268 1263 1270
f 1270 1263 1265
f 1271 1267 1266
f 1266 1187 1271
f 1187 1272 1271
f 1187 1192 1272
f 1273 1194 1193
f 1274 1273 1193
f 1191 1274 1193
f 1269 1274 1191
f 1277 1276 1275
f 1276 1272 1275
f 1272 1196 1275
f 1272 1192 1196
f 1278 1198 1273
f 1273 1198 1194
f 1273 1274 1279
f 1280 1273 1279
f 1278 1273 1280
f 1281 1280 1279
f 1283 1282 1199
f 1283 1199 1200
f 1275 1201 1277
f 1201 1282 1277
f 1201 1199 1282
f 1201 1275 1196
f 1278 1203 1198
f 1203 1278 1204
f 1278 1284 1204
f 1278 1280 1284
f 1280 1281 1285
f 1286 1280 1285
f 1284 1280 1286
f 1287 1286 1285
f 1290 1289 1288
f 1206 1207 1288
f 1289 1206 1288
f 1291 1206 1289
f 1200 1206 1283
f 1283 1206 1291
f 1284 1209 1204
f 1209 1284 1211
f 1211 1284 1286
f 1293 1292 1212
f 1293 1212 1211
f 1287 1293 1211
f 1286 1287 1211
f 1295 1294 1292
f 1295 1292 1293
f 1297 1296 1294
f 1297 1294 1295
f 1296 1297 1290
f 1296 1290 1288
f 1215 1296 1288
f 1214 1215 1288
f 1214 1288 1207
f 1292 1217 1212
f 1217 1292 1220
f 1220 1292 1294
f 1220 1294 1222
f 1222 1294 1296
f 1222 1296 1215
f 1298 1230 1231
f 1232 1299 1231
f 1231 1299 1298
f 1233 1299 1232
f 1298 1234 1230
f 1234 1298 1237
f 1237 1298 1299
f 1237 1299 1233
f 1300 1238 1239
f 1240 1301 1239
f 1239 1301 1300
f 1242 1301 1240
f 1302 1246 1247
f 1238 1300 1247
f 1300 1302 1247
f 1300 1303 1302
f 1304 1300 1301
f 1303 1300 1304
f 1248 1305 1242
f 1305 1301 1242
f 1305 1304 1301
f 1305 1248 1306
f 1248 1307 1306
f 1248 1249 1307
f 1308 1249 1250
f 1308 1307 1249
f 1310 1308 1309
f 1308 1251 1309
f 1308 1250 1251
f 1252 1311 1251
f 1251 1311 1309
f 1254 1311 1252
f 1302 1255 1246
f 1255 1302 1256
f 1302 1312 1256
f 1302 1303 1312
f 1313 1303 1304
f 1312 1303 1313
f 1305 1315 1314
f 1313 1305 1314
f 1304 1305 1313
f 1315 1305 1306
f 1318 1317 1316
f 1316 1317 1310
f 1309 1316 1310
f 1319 1316 1309
f 1320 1309 1311
f 1319 1309 1320
f 1257 1321 1254
f 1321 1311 1254
f 1321 1320 1311
f 1259 1321 1257
f 1312 1261 1256
f 1261 1312 1264
f 1264 1312 1313
f 1323 1322 1265
f 1323 1265 1264
f 1314 1323 1264
f 1313 1314 1264
f 1324 1322 1323
f 1325 1318 1316
f 1325 1316 1319
f 1325 1319 1326
f 1326 1319 1320
f 1326 1320 1327
f 1329 1328 1327
f 1320 1329 1327
f 1321 1329 1320
f 1267 1329 1259
f 1259 1329 1321
f 1330 1269 1268
f 1330 1268 1331
f 1268 1332 1331
f 1268 1270 1332
f 1270 1265 1322
f 1333 1270 1322
f 1332 1270 1333
f 1333 1322 1324
f 1328 1329 1334
f 1328 1334 1335
f 1271 1336 1267
f 1336 1329 1267
f 1336 1334 1329
f 1272 1336 1271
f 1337 1274 1330
f 1330 1274 1269
f 1330 1331 1338
f 1339 1330 1338
f 1337 1330 1339
f 1341 1340 1339
f 1341 1339 1338
f 1342 1340 1341
f 1345 1344 1343
f 1343 1344 1335
f 1334 1343 1335
f 1346 1343 1334
f 1277 1346 1276
f 1346 1336 1276
f 1346 1334 1336
f 1276 1336 1272
f 1337 1279 1274
f 1279 1337 1281
f 1337 1347 1281
f 1337 1339 1347
f 1348 1339 1340
f 1347 1339 1348
f 1340 1342 1349
f 1350 1340 1349
f 1348 1340 1350
f 1352 1351 1350
f 1352 1350 1349
f 1354 1353 1351
f 1354 1351 1352
f 1353 1354 1345
f 1343 1353 1345
f 1355 1353 1343
f 1283 1355 1282
f 1355 1346 1282
f 1355 1343 1346
f 1282 1346 1277
f 1347 1285 1281
f 1285 1347 1287
f 1347 1356 1287
f 1347 1348 1356
f 1357 1348 1350
f 1356 1348 1357
f 1358 1350 1351
f 1357 1350 1358
f 1290 1358 1289
f 1358 1353 1289
f 1358 1351 1353
f 1289 1353 1291
f 1291 1353 1355
f 1291 1355 1283
f 1356 1293 1287
f 1293 1356 1295
f 1295 1356 1357
f 1295 1357 1297
f 1297 1357 1358
f 1297 1358 1290
f 1359 1306 1307
f 1308 1360 1307
f 1307 1360 1359
f 1310 1360 1308
f 1361 1314 1315
f 1306 1359 1315
f 1359 1361 1315
f 1359 1362 1361
f 1318 1362 1317
f 1362 1360 1317
f 1362 1359 1360
f 1317 1360 1310
f 1361 1323 1314
f 1323 1361 1324
f 1361 1363 1324
f 1361 1362 1363
f 1325 1364 1318
f 1364 1362 1318
f 1364 1363 1362
f 1326 1365 1325
f 1325 1365 1364
f 1327 1366 1326
f 1326 1366 1365
f 1328 1366 1327
f 1367 1331 1332
f 1333 1368 1332
f 1332 1368 1367
f 1324 1363 1333
f 1363 1368 1333
f 1363 1369 1368
f 1370 1363 1364
f 1369 1363 1370
f 1371 1364 1365
f 1370 1364 1371
f 1372 1365 1366
f 1371 1365 1372
f 1335 1372 1328
f 1328 1372 1366
f 1367 1338 1331
f 1338 1367 1341
f 1341 1367 1368
f 1341 1368 1342
f 1368 1373 1342
f 1368 1369 1373
f 1374 1369 1370
f 1373 1369 1374
f 1375 1370 1371
f 1374 1370 1375
f 1345 1375 1344
f 1375 1372 1344
f 1375 1371 1372
f 1344 1372 1335
f 1373 1349 1342
f 1349 1373 1352
f 1352 1373 1374
f 1352 1374 1354
f 1354 1374 1375
f 1354 1375 1345
f 1378 1377 1376
f 1376 1379 1378
f 1377 1380 1376
f 1376 1380 1379
f 1382 1381 1378
f 1378 1381 1377
f 1378 1379 1382
f 1382 1379 1383
f 1380 1377 1384
f 1377 1385 1384
f 1377 1381 1385
f 1384 1386 1380
f 1386 1379 1380
f 1386 1383 1379
f 1385 1387 1384
f 1384 1387 1386
f 1389 1388 1382
f 1382 1388 1381
f 1382 1383 1389
f 1389 1383 1390
f 1388 1385 1381
f 1391 1385 1388
f 1386 1390 1383
f 1386 1392 1390
f 1391 1393 1385
f 1385 1393 1387
f 1386 1387 1392
f 1392 1387 1393
f 1396 1395 1394
f 1394 1397 1396
f 1394 1395 1398
f 1398 1395 1399
f 1397 1394 1400
f 1400 1394 1398
f 1398 1399 1401
f 1401 1399 1402
f 1400 1398 1403
f 1403 1398 1401
f 1402 1404 1401
f 1401 1404 1403
f 1405 1388 1389
f 1390 1405 1389
f 1406 1391 1405
f 1405 1391 1388
f 1392 1406 1390
f 1390 1406 1405
f 1406 1393 1391
f 1393 1406 1392
f 1409 1408 1407
f 1411 1410 1407
f 1407 1410 1409
f 1413 1412 1411
f 1411 1412 1410
f 1413 1414 1412
f 1407 1408 1396
f 1408 1395 1396
f 1408 1415 1395
f 1407 1396 1397
f 1416 1407 1397
f 1411 1407 1416
f 1418 1413 1417
f 1413 1416 1417
f 1413 1411 1416
f 1413 1418 1414
f 1421 1420 1419
f 1415 1421 1419
f 1399 1415 1419
f 1395 1415 1399
f 1400 1422 1416
f 1400 1416 1397
f 1417 1416 1423
f 1423 1416 1422
f 1419 1420 1424
f 1424 1420 1425
f 1424 1402 1399
f 1424 1399 1419
f 1427 1426 1422
f 1400 1427 1422
f 1403 1427 1400
f 1422 1426 1423
f 1425 1428 1424
f 1428 1430 1429
f 1428 1429 1404
f 1424 1428 1404
f 1402 1424 1404
f 1429 1431 1404
f 1431 1403 1404
f 1431 1427 1403
f 1430 1432 1429
f 1429 1432 1431
f 1433 1408 1409
f 1410 1434 1409
f 1409 1434 1433
f 1412 1435 1410
f 1410 1435 1434
f 1414 1435 1412
f 1437 1436 1433
f 1436 1408 1433
f 1436 1415 1408
f 1439 1438 1437
f 1433 1439 1437
f 1434 1439 1433
f 1417 1439 1418
f 1439 1435 1418
f 1439 1434 1435
f 1418 1435 1414
f 1440 1420 1421
f 1441 1440 1421
f 1415 1441 1421
f 1436 1441 1415
f 1438 1439 1442
f 1438 1442 1443
f 1423 1442 1417
f 1417 1442 1439
f 1444 1425 1440
f 1440 1425 1420
f 1440 1441 1445
f 1440 1445 1444
f 1443 1442 1426
f 1427 1443 1426
f 1446 1443 1427
f 1426 1442 1423
f 1444 1428 1425
f 1448 1447 1430
f 1448 1430 1428
f 1445 1448 1428
f 1444 1445 1428
f 1448 1446 1447
f 1446 1431 1447
f 1446 1427 1431
f 1447 1432 1430
f 1432 1447 1431
f 1449 1436 1437
f 1438 1449 1437
f 1450 1441 1449
f 1449 1441 1436
f 1443 1450 1438
f 1438 1450 1449
f 1451 1445 1450
f 1450 1445 1441
f 1446 1451 1443
f 1443 1451 1450
f 1451 1448 1445
f 1448 1451 1446
